<svg width="913" height="1307" viewBox="0 0 913 1307" fill="none" xmlns="http://www.w3.org/2000/svg">
<path d="M453.908 1221.57L458.163 1243.25C460.734 1256.36 472.228 1265.82 485.591 1265.82H654.54C667.902 1265.82 679.397 1256.36 681.968 1243.25L686.222 1221.57" fill="#A5A4A4"/>
<g opacity="0.25">
<path d="M686.221 1221.58L681.971 1243.25C679.396 1256.35 667.901 1265.82 654.543 1265.82H604.293C617.651 1265.82 629.146 1256.35 631.721 1243.25L635.971 1221.58H686.221Z" fill="#371A45"/>
</g>
<g opacity="0.6">
<path d="M502.119 1265.82H485.6C472.221 1265.82 460.726 1256.35 458.151 1243.25L453.9 1221.58H470.441L474.691 1243.25C477.267 1256.35 488.761 1265.82 502.119 1265.82Z" fill="white"/>
</g>
<path d="M905.458 1255.81C905.542 1268.62 891.116 1276.22 880.584 1268.92C870.011 1261.59 856.087 1251.33 838.981 1237.55C785.549 1194.46 708.98 1216.66 708.98 1216.66L772.505 1039.07C778.598 1040.78 784.46 1042.71 790.071 1044.87C863.771 1072.88 898.046 1137.09 904.369 1226.98C905.039 1236.32 905.395 1245.93 905.458 1255.81Z" fill="#84141F"/>
<path d="M434.197 1216.66C434.197 1216.66 431.035 1215.74 425.57 1214.65C404.088 1210.33 346.783 1203.22 304.196 1237.55C294.208 1245.59 285.31 1252.44 277.542 1258.2C271.994 1262.3 267.011 1265.86 262.614 1268.92C252.061 1276.22 237.635 1268.62 237.719 1255.81C238.494 1143.59 276.516 1065.55 370.672 1039.07L434.197 1216.66Z" fill="#9E1313"/>
<g opacity="0.6">
<path d="M250.282 1265.57C250.261 1267.74 250.68 1269.78 251.412 1271.6C244.042 1270.55 237.656 1264.33 237.719 1255.81C238.494 1143.59 276.516 1065.55 370.672 1039.07L375.048 1051.31C286.859 1079.96 251.035 1156.65 250.282 1265.57Z" fill="white"/>
</g>
<g opacity="0.25">
<path d="M425.572 1214.65C404.09 1210.33 346.784 1203.22 304.197 1237.55C294.21 1245.59 285.312 1252.44 277.544 1258.2C268.75 1207.05 309.285 1166.74 344.46 1134.04C381.603 1099.51 374.443 1058.87 371.302 1047.08L399.84 1141.91L425.572 1214.65Z" fill="#371A45"/>
</g>
<path d="M770.662 1046.5C758.183 1096.5 743.548 1146.16 726.987 1195.13C721.627 1210.94 706.761 1221.58 690.074 1221.58H453.899C437.212 1221.58 422.346 1210.94 416.986 1195.13C400.424 1146.16 385.789 1096.5 373.31 1046.5C310.812 796.274 301.767 537.863 370.149 318.983C404.842 207.951 459.468 107.095 537.167 22.6333C555.948 2.21924 588.024 2.21924 606.805 22.6333C685.091 107.744 739.968 209.5 774.598 321.558C842.143 539.873 832.93 797.237 770.662 1046.5Z" fill="white"/>
<path d="M770.662 1046.5C758.184 1096.5 743.548 1146.16 726.987 1195.13C721.627 1210.94 706.761 1221.58 690.074 1221.58H453.899C437.212 1221.58 422.346 1210.94 416.986 1195.13C400.425 1146.16 385.789 1096.5 373.311 1046.5H770.662Z" fill="#9E1313"/>
<path d="M774.6 321.558C647.3 350.724 512.819 350.724 371.155 321.558L370.15 318.983C404.844 207.951 459.47 107.095 537.169 22.6333C555.95 2.21924 588.026 2.21924 606.807 22.6333C685.092 107.744 739.97 209.501 774.6 321.558Z" fill="#7D0707"/>
<g opacity="0.25">
<path d="M438.867 1218.56L492.991 1221.58H453.9C448.624 1221.58 443.536 1220.51 438.867 1218.56Z" fill="#371A45"/>
</g>
<g opacity="0.25">
<path d="M770.663 1046.5C758.185 1096.5 743.549 1146.16 726.988 1195.13C721.628 1210.94 706.762 1221.58 690.075 1221.58H618.615L611.831 1220.76L601.593 1219.53L604.315 1134.04L596.066 1070.45C596.066 1070.45 618.846 1108.02 635.227 1135.39C639.536 1142.6 650.277 1141.52 653.108 1133.62C662.241 1108.1 670.825 1082.41 678.811 1056.59C754.876 811.181 778.41 554.739 723.135 332.99C694.786 219.174 645.666 114.528 572.26 25.1877C566.962 18.7599 560.367 14.0909 553.186 11.2224C571.045 3.47555 592.674 7.28618 606.806 22.6334C685.092 107.744 739.969 209.501 774.6 321.558C842.144 539.873 832.931 797.237 770.663 1046.5Z" fill="#371A45"/>
</g>
<g opacity="0.25">
<path d="M618.615 1221.58H610.533C610.973 1221.33 611.413 1221.05 611.831 1220.76L618.615 1221.58Z" fill="#371A45"/>
</g>
<g opacity="0.25">
<path d="M610.533 1221.58C604.064 1225.39 596.463 1227.36 588.591 1226.92L492.99 1221.58H610.533Z" fill="#371A45"/>
</g>
<g opacity="0.25">
<path d="M607.268 784.78C679.653 784.78 738.332 726.1 738.332 653.715C738.332 581.33 679.653 522.65 607.268 522.65C534.883 522.65 476.203 581.33 476.203 653.715C476.203 726.1 534.883 784.78 607.268 784.78Z" fill="#371A45"/>
</g>
<path d="M571.986 748.487C644.371 748.487 703.051 689.807 703.051 617.422C703.051 545.037 644.371 486.357 571.986 486.357C499.601 486.357 440.922 545.037 440.922 617.422C440.922 689.807 499.601 748.487 571.986 748.487Z" fill="#992121"/>
<g opacity="0.25">
<path d="M703.055 617.426C703.055 689.807 644.368 748.495 571.987 748.495C539.555 748.495 509.844 736.707 486.98 717.151C506.515 728.751 529.337 735.409 553.687 735.409C626.089 735.409 684.756 676.721 684.756 604.34C684.756 564.412 666.917 528.672 638.756 504.636C677.26 527.458 703.055 569.437 703.055 617.426Z" fill="#371A45"/>
</g>
<g opacity="0.7">
<path d="M675.837 537.508C652.073 513.367 619.012 498.396 582.455 498.396C510.075 498.396 451.387 557.063 451.387 629.444C451.387 659.49 461.5 687.169 478.522 709.279C455.26 685.62 440.918 653.208 440.918 617.426C440.918 545.045 499.606 486.357 571.987 486.357C614.28 486.357 651.905 506.395 675.837 537.508Z" fill="white"/>
</g>
<g opacity="0.6">
<path d="M607.266 23.1358C589.72 16.1845 568.846 20.1836 555.09 35.133C477.391 119.595 422.765 220.451 388.071 331.482C319.689 550.363 328.734 808.774 391.233 1059C403.712 1109 418.347 1158.66 434.908 1207.63C436.395 1212.05 438.635 1216.05 441.42 1219.53C430.135 1215.71 420.964 1206.84 416.986 1195.13C400.424 1146.16 385.789 1096.5 373.31 1046.5C310.812 796.274 301.767 537.863 370.149 318.983C404.842 207.951 459.468 107.095 537.167 22.6333C555.948 2.21924 588.024 2.21924 606.805 22.6333C606.952 22.8008 607.119 22.9683 607.266 23.1358Z" fill="white"/>
</g>
<path d="M571.986 755.815C495.678 755.815 433.594 693.731 433.594 617.422C433.594 541.113 495.678 479.029 571.986 479.029C648.295 479.029 710.379 541.113 710.379 617.422C710.379 693.735 648.295 755.815 571.986 755.815ZM571.986 493.686C503.76 493.686 448.25 549.195 448.25 617.422C448.25 685.649 503.76 741.158 571.986 741.158C640.213 741.158 695.723 685.649 695.723 617.422C695.723 549.195 640.218 493.686 571.986 493.686Z" fill="#371A45"/>
<g opacity="0.7">
<path d="M669.597 626.948C669.597 674.958 630.675 713.881 582.665 713.881C580.383 713.881 578.101 713.797 575.86 713.608C561.183 712.478 547.532 707.683 535.786 700.167C531.201 697.235 526.908 693.864 522.951 690.137C515.623 683.186 509.488 675 504.924 665.892C499.041 654.188 495.732 640.955 495.732 626.948C495.732 578.938 534.655 540.016 582.665 540.016C589.491 540.016 596.107 540.811 602.472 542.277C612.501 544.622 621.881 548.705 630.235 554.19C634.799 557.163 639.071 560.576 642.986 564.345C653.162 574.165 660.95 586.434 665.389 600.19C668.132 608.607 669.597 617.61 669.597 626.948Z" fill="white"/>
</g>
<path d="M658.92 617.426C658.92 665.435 619.997 704.358 571.987 704.358C569.705 704.358 567.423 704.274 565.182 704.086C550.505 702.955 536.854 698.161 525.108 690.644C520.523 687.713 516.231 684.342 512.273 680.615C504.945 673.664 498.811 665.477 494.246 656.369C488.363 644.665 485.055 631.433 485.055 617.426C485.055 569.416 523.977 530.493 571.987 530.493C578.813 530.493 585.429 531.289 591.794 532.754C601.823 535.099 611.203 539.182 619.557 544.668C624.122 547.641 628.393 551.054 632.308 554.823C642.484 564.642 650.273 576.912 654.711 590.668C657.454 599.084 658.92 608.088 658.92 617.426Z" fill="#10AFFF"/>
<g opacity="0.25">
<path d="M655.193 592.238C651.34 585.998 646.734 580.283 641.5 575.237C637.584 571.468 633.313 568.055 628.749 565.082C620.395 559.596 611.015 555.513 600.986 553.168C594.621 551.703 588.004 550.907 581.179 550.907C533.169 550.907 494.246 589.83 494.246 637.84C494.246 646.592 495.544 655.05 497.952 663.007C496.612 660.85 495.377 658.631 494.246 656.369C488.363 644.665 485.055 631.433 485.055 617.426C485.055 569.416 523.977 530.493 571.987 530.493C578.813 530.493 585.429 531.289 591.794 532.754C601.823 535.099 611.203 539.182 619.557 544.668C624.122 547.641 628.393 551.054 632.308 554.823C642.484 564.642 650.273 576.912 654.711 590.668C654.879 591.191 655.046 591.714 655.193 592.238Z" fill="#371A45"/>
</g>
<g opacity="0.6">
<path d="M654.711 590.668L565.182 704.086C550.505 702.956 536.853 698.161 525.107 690.644L632.307 554.823C642.483 564.642 650.272 576.912 654.711 590.668Z" fill="white"/>
</g>
<g opacity="0.6">
<path d="M619.557 544.668L512.273 680.615C504.945 673.664 498.81 665.478 494.246 656.37L591.794 532.755C601.823 535.1 611.203 539.183 619.557 544.668Z" fill="white"/>
</g>
<path d="M571.987 710.635C520.59 710.635 478.773 668.819 478.773 617.422C478.773 566.024 520.59 524.208 571.987 524.208C623.385 524.208 665.201 566.024 665.201 617.422C665.201 668.819 623.385 710.635 571.987 710.635ZM571.987 536.771C527.516 536.771 491.336 572.95 491.336 617.422C491.336 661.893 527.516 698.073 571.987 698.073C616.458 698.073 652.638 661.893 652.638 617.422C652.638 572.95 616.458 536.771 571.987 536.771Z" fill="#371A45"/>
<path d="M690.067 1228.9H453.908C434.03 1228.9 416.405 1216.28 410.049 1197.48C335.691 977.727 304.092 756.614 318.661 558.047C326.466 451.634 347.563 352.801 381.36 264.294C417.356 170.033 467.966 87.0581 531.788 17.6754C542.122 6.44037 556.779 0 571.992 0C587.209 0 601.861 6.44456 612.196 17.6754C676.018 87.0581 726.628 170.033 762.623 264.294C796.421 352.801 817.513 451.634 825.323 558.047C839.891 756.618 808.288 977.731 733.935 1197.48C727.57 1216.28 709.945 1228.9 690.067 1228.9ZM571.988 14.6521C560.694 14.6521 550.246 19.2499 542.57 27.5956C307.777 282.84 263.427 718.428 423.93 1192.78C428.273 1205.62 440.32 1214.25 453.908 1214.25H690.067C703.655 1214.25 715.698 1205.62 720.041 1192.78C880.544 718.424 836.194 282.84 601.401 27.5956C593.729 19.2499 583.281 14.6521 571.988 14.6521Z" fill="#371A45"/>
<path d="M654.54 1273.15H485.591C468.77 1273.15 454.21 1261.17 450.969 1244.66L446.715 1222.98C445.936 1219.01 448.524 1215.16 452.493 1214.38C456.455 1213.59 460.316 1216.19 461.094 1220.16L465.349 1241.84C467.242 1251.49 475.755 1258.49 485.587 1258.49H654.536C664.368 1258.49 672.881 1251.49 674.774 1241.84L679.029 1220.16C679.808 1216.19 683.664 1213.6 687.63 1214.38C691.6 1215.16 694.187 1219.01 693.409 1222.98L689.154 1244.66C685.921 1261.17 671.361 1273.15 654.54 1273.15Z" fill="#371A45"/>
<path d="M770.664 1053.83H373.32C369.271 1053.83 365.992 1050.54 365.992 1046.5C365.992 1042.45 369.271 1039.17 373.32 1039.17H770.664C774.713 1039.17 777.992 1042.45 777.992 1046.5C777.992 1050.54 774.709 1053.83 770.664 1053.83Z" fill="#371A45"/>
<path d="M889.592 1279.08C884.965 1279.08 880.358 1277.69 876.397 1274.94C863.407 1265.92 849.275 1255.26 834.392 1243.26C784.64 1203.14 711.757 1223.49 711.024 1223.7C707.138 1224.82 703.076 1222.58 701.954 1218.7C700.832 1214.81 703.064 1210.75 706.95 1209.62C710.224 1208.67 787.819 1186.87 843.596 1231.85C858.207 1243.63 872.059 1254.08 884.759 1262.9C887.418 1264.74 890.718 1264.94 893.595 1263.43C896.464 1261.92 898.164 1259.08 898.139 1255.85C897.339 1138.66 855.594 1070.05 770.525 1046.11C766.63 1045.01 764.36 1040.96 765.458 1037.07C766.555 1033.17 770.604 1030.91 774.498 1032C821.821 1045.32 857.436 1072.1 880.35 1111.6C901.476 1148.02 912.393 1196.52 912.799 1255.75C912.858 1264.42 908.122 1272.33 900.433 1276.39C897.012 1278.19 893.294 1279.08 889.592 1279.08Z" fill="#371A45"/>
<path d="M253.586 1279.08C249.885 1279.08 246.17 1278.19 242.749 1276.39C235.065 1272.33 230.325 1264.43 230.383 1255.75C230.79 1196.52 241.706 1148.02 262.832 1111.6C285.746 1072.1 321.361 1045.32 368.684 1032C372.578 1030.91 376.628 1033.17 377.725 1037.07C378.822 1040.96 376.552 1045.01 372.658 1046.11C287.589 1070.05 245.848 1138.66 245.044 1255.85C245.023 1259.08 246.719 1261.91 249.587 1263.43C252.46 1264.94 255.764 1264.74 258.423 1262.9C271.124 1254.08 284.972 1243.63 299.586 1231.85C355.359 1186.87 432.954 1208.67 436.233 1209.62C440.119 1210.75 442.355 1214.82 441.228 1218.7C440.102 1222.59 436.04 1224.83 432.15 1223.7C431.425 1223.49 358.542 1203.13 308.79 1243.25C293.908 1255.25 279.775 1265.92 266.785 1274.93C262.82 1277.69 258.218 1279.08 253.586 1279.08Z" fill="#371A45"/>
<path d="M578.244 350.661C510.348 350.661 440.672 343.354 369.681 328.74C365.716 327.923 363.166 324.05 363.982 320.084C364.799 316.118 368.685 313.577 372.638 314.385C512.605 343.199 647.296 343.216 772.975 314.418C776.92 313.514 780.852 315.98 781.757 319.925C782.661 323.87 780.195 327.802 776.25 328.706C712.353 343.341 646.19 350.661 578.244 350.661Z" fill="#371A45"/>
<path d="M588.339 1286.4C608.137 1231.07 611.165 1108.04 588.138 1040.29C582.527 1023.78 561.447 1023.78 555.835 1040.29C532.804 1108.04 535.836 1231.07 555.634 1286.4C561.501 1302.79 582.472 1302.79 588.339 1286.4Z" fill="#9E1E1E"/>
<g opacity="0.6">
<path d="M569.37 1049.18C546.339 1116.93 549.375 1239.98 569.161 1295.3C569.6 1296.51 570.103 1297.62 570.71 1298.65C564.45 1298.15 558.378 1294.08 555.635 1286.4C535.828 1231.08 532.813 1108.03 555.844 1040.28C561.037 1025.02 579.441 1023.86 586.602 1036.85C579.587 1036.36 572.322 1040.49 569.37 1049.18Z" fill="white"/>
</g>
<path d="M571.988 1306.02C561.59 1306.02 552.461 1299.29 548.735 1288.86C528.957 1233.6 524.623 1109.34 548.898 1037.93C552.482 1027.39 561.544 1020.58 571.988 1020.58C582.431 1020.58 591.493 1027.39 595.078 1037.93C619.357 1109.34 615.019 1233.6 595.241 1288.86C591.51 1299.29 582.385 1306.02 571.988 1306.02ZM571.988 1035.23C567.796 1035.23 564.354 1038.01 562.775 1042.65C540.058 1109.47 543.655 1231.17 562.532 1283.92C564.199 1288.58 567.733 1291.36 571.988 1291.36C576.242 1291.36 579.777 1288.58 581.443 1283.93C600.325 1231.17 603.922 1109.47 581.205 1042.65C579.626 1038.01 576.179 1035.23 571.988 1035.23Z" fill="#371A45"/>
<g opacity="0.25">
<path d="M630.11 1221.58C629.754 1222.44 629.566 1222.9 629.566 1222.9L618.615 1221.58H630.11Z" fill="#371A45"/>
</g>
<path d="M371.239 1046.85L370.381 1043.99C370.548 1044.43 370.862 1045.41 371.239 1046.85Z" fill="white"/>
<g opacity="0.25">
<path d="M905.458 1255.81C905.542 1268.62 891.116 1276.22 880.584 1268.92C870.011 1261.59 856.087 1251.33 838.981 1237.55C785.549 1194.46 708.98 1216.66 708.98 1216.66C736.869 1185.47 751.911 1113.78 772.505 1039.07C778.598 1040.78 784.46 1042.71 790.071 1044.87L789.736 1046.5C789.736 1046.5 764.004 1096.83 807.219 1155.42C850.455 1214 904.369 1226.98 904.369 1226.98C905.039 1236.32 905.395 1245.93 905.458 1255.81Z" fill="#371A45"/>
</g>
<path d="M490.603 678.857L485.745 768.323L485.619 770.647L471.214 840.013L455.721 914.55L454.737 919.303C454.737 919.303 435.034 1015.87 364.726 1002.59C363.7 1002.42 362.674 1002.19 361.649 1001.96L360.162 998.677L359.911 998.133L339.832 953.683C334.514 952.28 375.865 642.153 375.865 642.153L416.421 617.426C435.307 624.21 454.381 633.946 473.622 646.09C484.803 653.146 491.314 665.666 490.603 678.857Z" fill="white"/>
<path d="M377.694 1011.18C373.033 1011.18 368.256 1010.72 363.369 1009.79C362.41 1009.64 361.275 1009.39 360.14 1009.14C357.891 1008.63 355.923 1007.09 354.977 1004.98L333.868 958.272C331.414 955.081 331.841 949.16 332.549 939.365C333.143 931.116 334.282 919.094 335.936 903.633C338.709 877.696 342.963 841.646 348.587 796.488C358.151 719.639 368.503 641.961 368.607 641.186C368.9 638.992 370.169 637.049 372.054 635.897L412.61 611.17C414.502 610.018 416.818 609.78 418.903 610.529C437.554 617.229 457.286 627.108 477.541 639.892C490.97 648.367 498.78 663.447 497.926 679.25L492.943 771.04C492.922 771.409 492.875 771.773 492.8 772.133L461.917 920.785C461.708 921.803 456.578 946.434 442.357 969.737C425.687 997.061 403.535 1011.18 377.694 1011.18ZM366.773 995.52C392.317 1000 413.414 988.857 429.661 962.401C442.63 941.279 447.508 918.068 447.554 917.833L478.328 769.7L483.282 678.463C483.847 667.961 478.646 657.928 469.71 652.287C451.545 640.822 433.903 631.831 417.212 625.529L382.669 646.592C367.359 761.581 345.723 933.159 346.682 951.04L366.773 995.52Z" fill="#371A45"/>
<path d="M377.689 1011.19C371.965 1011.19 366.065 1010.49 360.001 1009.1C356.057 1008.2 353.59 1004.27 354.499 1000.32C355.403 996.378 359.335 993.912 363.28 994.82C379.033 998.43 393.288 996.231 405.658 988.284C436.884 968.217 447.457 918.331 447.562 917.829L478.336 769.696L483.29 678.455C483.859 667.952 478.663 657.923 469.722 652.283C450.368 640.068 431.599 630.659 413.94 624.319C410.13 622.949 408.153 618.754 409.519 614.947C410.888 611.136 415.084 609.156 418.89 610.525C437.554 617.225 457.289 627.108 477.544 639.888C490.974 648.363 498.779 663.447 497.921 679.246L492.938 771.04C492.917 771.409 492.871 771.773 492.795 772.133L461.913 920.79C461.452 923.055 450.058 977.124 413.631 1000.58C402.659 1007.65 390.625 1011.19 377.689 1011.19Z" fill="#371A45"/>
<path d="M433.149 682.986C431.369 682.986 429.585 682.341 428.178 681.038C425.205 678.291 425.021 673.656 427.768 670.683C445.016 652.011 485.669 658.221 490.25 658.991C494.24 659.661 496.933 663.442 496.263 667.433C495.593 671.424 491.816 674.104 487.825 673.446C478.236 671.847 448.592 669.74 438.534 680.628C437.089 682.194 435.121 682.986 433.149 682.986Z" fill="#371A45"/>
<path d="M414.39 779.042C414.055 779.545 413.719 780.068 413.384 780.592C413.384 780.592 410.767 960.654 335.392 1037.08C335.392 1037.08 299.108 1075.81 300.489 1133.03V1254.6C300.489 1263.79 293.057 1271.22 283.865 1271.22H126.876C119.506 1271.22 113.036 1266.34 110.921 1259.26C109.581 1254.85 108.723 1250.53 108.262 1246.37C104.64 1213.01 128.006 1188.73 155.33 1184.69C155.33 1184.69 151.142 1140.03 153.236 1091.51C3.17697 1091.16 -28.3968 969.552 46.4548 867.126C46.4548 867.126 50.9982 833.291 56.9235 803.623C-27.8733 736.099 73.0664 613.008 158.784 586.124L398.456 625.487C398.456 625.487 475.883 682.625 414.39 779.042Z" fill="white"/>
<path d="M283.865 1278.55H126.876C116.206 1278.55 106.972 1271.64 103.899 1261.36C102.488 1256.71 101.503 1251.93 100.976 1247.17C97.0145 1210.7 120.98 1185.84 147.503 1178.83C146.511 1165.5 144.572 1133.52 145.636 1098.72C81.55 1096.8 34.5286 1072.3 12.7494 1029.29C-11.0942 982.19 -1.10282 920.634 39.4406 864.312C40.4246 857.235 44.1682 830.967 48.8917 806.487C23.3522 784.453 13.1305 755.421 19.3154 722.247C31.1661 658.677 99.862 596.924 156.59 579.131C157.683 578.788 158.839 578.704 159.969 578.892L399.641 618.255C400.784 618.443 401.869 618.9 402.802 619.591C403.657 620.223 423.861 635.348 436.177 663.141C447.542 688.785 454.066 730.354 420.662 782.828C420.118 804.452 413.585 968.225 340.606 1042.22C340.405 1042.44 306.523 1079.49 307.813 1132.86V1254.6C307.817 1267.8 297.072 1278.55 283.865 1278.55ZM159.341 593.641C107.002 610.809 44.499 667.144 33.7288 724.931C28.2515 754.315 37.5939 778.858 61.4919 797.89C63.6401 799.603 64.6493 802.367 64.1133 805.059C58.3053 834.146 53.766 867.767 53.7199 868.102C53.5566 869.312 53.096 870.464 52.3716 871.452C14.8055 922.858 4.63405 980.8 25.827 1022.67C45.8391 1062.19 91.0892 1084.04 153.253 1084.19C155.25 1084.19 157.155 1085.01 158.533 1086.45C159.911 1087.9 160.644 1089.84 160.556 1091.83C158.508 1139.29 162.582 1183.56 162.624 1184C162.989 1187.88 160.254 1191.37 156.397 1191.94C134.128 1195.23 112.24 1215.15 115.544 1245.58C115.971 1249.43 116.771 1253.33 117.931 1257.14C119.141 1261.19 122.73 1263.9 126.871 1263.9H283.861C288.986 1263.9 293.157 1259.73 293.157 1254.6V1133.04C291.721 1073.68 328.474 1033.74 330.04 1032.07C402.639 958.46 406.027 782.262 406.052 780.491C406.073 779.13 406.471 777.799 407.204 776.651C407.551 776.111 407.899 775.567 408.242 775.047C461.44 691.561 405.265 640.44 395.412 632.417L159.341 593.641Z" fill="#371A45"/>
<path d="M224.738 805.759C219.316 809.193 215.693 815.62 215.693 822.99C215.693 833.982 223.775 842.881 233.762 842.881C241.572 842.881 248.23 837.416 250.743 829.774" fill="#10AFFF"/>
<path d="M498.431 803.979C497.07 809.423 495.186 816.877 492.987 825.356C487.188 847.948 479.42 877.742 474.688 895.895C472.238 905.233 464.91 912.352 455.718 914.55C454.588 914.822 453.415 915.011 452.222 915.137C437.084 916.623 415.246 916.121 397.533 904.94L398.58 898.428L414.702 799.122L418.324 776.719L419.266 770.961L428.918 770.584H428.939L485.743 768.323L495.96 786.12C499.059 791.522 499.959 797.928 498.431 803.979Z" fill="white"/>
<path d="M440.184 923.063C425.582 923.063 408.392 920.463 393.623 911.137C391.14 909.571 389.833 906.673 390.298 903.776L391.345 897.264L412.035 769.776C412.596 766.338 415.503 763.771 418.978 763.637L428.63 763.26C428.668 763.26 428.702 763.26 428.735 763.256L485.451 760.999C488.198 760.898 490.739 762.305 492.096 764.671L502.314 782.468C506.392 789.574 507.535 797.849 505.534 805.767C504.169 811.228 502.28 818.694 500.082 827.191C494.295 849.74 486.539 879.484 481.803 897.654C478.654 909.663 469.324 918.83 457.428 921.677C456.054 922.008 454.555 922.259 452.985 922.423C449.074 922.808 444.752 923.063 440.184 923.063ZM405.574 901.096C420.699 908.834 438.63 909.106 451.507 907.842C452.39 907.75 453.249 907.607 454.007 907.423C460.644 905.836 465.853 900.706 467.603 894.036C472.356 875.803 480.103 846.08 485.894 823.535C488.089 815.064 489.969 807.631 491.326 802.204C491.326 802.2 491.33 802.191 491.33 802.187C492.393 797.97 491.782 793.561 489.609 789.771L481.602 775.823L429.233 777.908C429.196 777.908 429.158 777.908 429.12 777.912L425.536 778.054L405.574 901.096Z" fill="#371A45"/>
<path d="M283.869 1278.55H126.88C116.227 1278.55 106.989 1271.65 103.895 1261.38C97.89 1241.45 100.122 1221.75 110.18 1205.9C118.723 1192.44 132.081 1182.81 147.503 1178.81C146.511 1165.46 144.576 1133.49 145.64 1098.72C81.5671 1096.79 34.5373 1072.3 12.7623 1029.28C-11.0855 982.182 -1.09414 920.63 39.4492 864.312C40.4291 857.231 44.1685 830.955 48.8962 806.479C23.3609 784.448 13.1392 755.417 19.3199 722.247C31.1664 658.681 99.8623 596.92 156.595 579.123C157.687 578.779 158.847 578.7 159.978 578.884L399.654 618.259C400.797 618.448 401.882 618.904 402.815 619.595C403.678 620.231 424.1 635.516 436.391 663.593C447.613 689.229 453.89 730.618 420.675 782.815C420.131 804.389 413.615 968.213 340.618 1042.22C340.413 1042.44 306.528 1079.49 307.83 1132.86V1254.6C307.826 1267.81 297.077 1278.55 283.869 1278.55ZM159.337 593.632C106.994 610.81 44.491 667.152 33.7207 724.936C28.2477 754.315 37.59 778.858 61.4838 797.89C63.632 799.603 64.6412 802.367 64.1052 805.059C58.2888 834.137 53.7579 867.771 53.716 868.106C53.5527 869.321 53.0921 870.468 52.3677 871.456C14.8016 922.862 4.63435 980.805 25.8315 1022.67C45.8435 1062.19 91.0937 1084.04 153.249 1084.18C155.246 1084.19 157.151 1085 158.529 1086.45C159.907 1087.89 160.64 1089.83 160.552 1091.83C158.504 1139.28 162.578 1183.55 162.62 1184C162.985 1187.88 160.25 1191.36 156.398 1191.93C142.37 1194.01 130.033 1201.97 122.55 1213.76C117.073 1222.39 111.826 1236.92 117.923 1257.15C119.142 1261.19 122.739 1263.9 126.876 1263.9H283.865C288.991 1263.9 293.161 1259.73 293.161 1254.6V1133.04C291.713 1073.67 328.475 1033.73 330.037 1032.06C402.635 958.452 406.023 782.254 406.048 780.483C406.069 779.101 406.479 777.753 407.233 776.593C432.069 738.415 437.358 702.373 422.949 669.468C413.887 648.773 399.704 635.981 395.387 632.413L159.337 593.632Z" fill="#371A45"/>
<path d="M294.777 863.613C294.777 863.613 367.397 878.588 405.482 863.613C421.935 853.475 423.618 828.007 410.754 821.834C410.754 821.834 394.976 823.769 382.983 820.499" fill="white"/>
<path d="M359.616 877.603C326.895 877.603 295.292 871.205 293.294 870.79C289.333 869.974 286.783 866.096 287.599 862.135C288.416 858.169 292.298 855.619 296.255 856.436C296.959 856.578 366.366 870.627 402.161 857.039C409.359 852.29 412.249 843.735 411.91 837.232C411.73 833.76 410.645 830.955 408.937 829.372C403.572 829.807 391.29 830.36 381.056 827.571C377.153 826.507 374.85 822.479 375.914 818.576C376.977 814.669 381.006 812.37 384.913 813.43C395.335 816.273 409.728 814.582 409.874 814.561C411.261 814.393 412.672 814.623 413.932 815.231C421.323 818.777 426.042 826.717 426.553 836.469C427.257 849.869 420.498 862.976 409.334 869.856C408.966 870.087 408.576 870.279 408.17 870.439C394.465 875.819 376.881 877.603 359.616 877.603Z" fill="#371A45"/>
<path d="M543.275 398.42C551.525 524.413 454.442 633.351 326.451 641.73C244.929 647.065 170.529 610.315 125.128 550.371C125.07 550.283 124.793 549.94 124.337 549.337C98.9021 515.347 82.7425 474.025 79.7778 428.758C76.0006 371.029 94.3251 316.901 127.574 274.369L127.641 274.294C167.003 224.014 227.253 189.97 296.581 185.435C424.572 177.056 535.026 272.405 543.275 398.42Z" fill="white"/>
<path d="M478.893 409.47L447.587 528.848C376.266 617.053 201.107 624.009 125.145 550.384C125.145 550.384 125.145 550.384 125.125 550.367C125.066 550.279 124.789 549.936 124.333 549.333C98.8982 515.343 82.7386 474.021 79.7739 428.754C75.9967 371.025 94.3212 316.897 127.57 274.365L127.637 274.29C204.067 183.383 448.986 216.209 478.893 409.47Z" fill="#371A45"/>
<g opacity="0.7">
<path d="M478.892 409.47L448.742 530.389C377.421 618.594 201.106 624.013 125.141 550.388C125.141 550.388 125.141 550.388 125.12 550.371C125.061 550.283 124.785 549.94 124.328 549.337C102.524 520.213 87.5455 485.683 81.8379 447.907C119.169 499.225 181.186 530.874 249.2 526.419C354.641 519.518 434.53 428.436 427.629 322.994C427.022 313.736 425.761 304.682 423.898 295.868C451.372 324.481 471.564 362.177 478.892 409.47Z" fill="#111A28"/>
</g>
<path d="M310.832 649.565C235.482 649.565 164.784 614.867 119.283 554.793C119.258 554.76 119.233 554.726 119.212 554.697L118.487 553.755C91.3271 517.458 75.4188 474.41 72.4624 429.235C68.7146 371.95 86.2351 315.348 121.8 269.855C121.862 269.775 121.925 269.7 121.988 269.625C164.072 215.958 227.521 182.608 296.1 178.119C359.938 173.94 421.558 194.488 469.617 235.982C517.711 277.501 546.466 335.021 550.583 397.938C559.079 527.767 458.747 640.407 326.924 649.037C321.543 649.389 316.175 649.565 310.832 649.565ZM130.966 545.945C176.71 606.342 249.615 639.414 325.969 634.415C449.723 626.316 543.916 520.653 535.96 398.897C532.099 339.929 505.136 286.01 460.041 247.075C414.912 208.114 357.037 188.814 297.059 192.746C232.571 196.967 172.925 228.336 133.407 278.812C133.349 278.887 133.286 278.963 133.227 279.034C99.9617 321.663 83.576 374.656 87.0852 428.281C89.8573 470.612 104.765 510.954 130.2 544.944L130.702 545.602C130.807 545.736 130.895 545.849 130.966 545.945Z" fill="#371A45"/>
<g opacity="0.25">
<path d="M543.275 398.42C551.524 524.413 454.441 633.351 326.45 641.73C260.058 646.077 198.543 617.196 153.406 575.903C189.013 593.432 229.552 607.481 272.201 604.688C400.192 596.308 497.275 487.371 489.026 361.377C485.056 300.73 457.423 247.205 415.552 208.902C486.84 243.997 537.773 314.393 543.275 398.42Z" fill="#371A45"/>
</g>
<path d="M272.148 607.552C212.673 607.552 156.271 587.845 121.498 554.149C119.421 552.139 119.371 548.822 121.381 546.745C123.391 544.668 126.703 544.614 128.784 546.628C165.375 582.088 227.727 601.153 291.49 596.354C356.245 591.493 413.057 563.114 447.562 518.438L473.562 409.244C454.677 290.424 359.042 251.443 318.713 240.182C244.464 219.459 167.51 234.898 131.577 277.732C129.722 279.947 126.418 280.236 124.203 278.381C121.988 276.522 121.699 273.222 123.554 271.007C162.037 225.128 243.451 208.303 321.522 230.103C362.062 241.418 398.062 262.171 425.636 290.118C457.181 322.086 476.837 361.968 484.06 408.654C484.165 409.324 484.136 410.007 483.981 410.668L457.482 521.951C457.311 522.663 456.996 523.329 456.553 523.911C420.306 571.468 360.424 601.677 292.269 606.794C285.543 607.305 278.827 607.552 272.148 607.552Z" fill="#371A45"/>
<path d="M550.76 491.906C541.074 529.794 510.308 553.977 476.771 545.405C443.229 536.834 427.819 501.152 437.5 463.263C447.186 425.375 478.299 399.626 511.837 408.202C545.379 416.774 560.441 454.017 550.76 491.906Z" fill="white"/>
<path d="M490.233 554.45C485.162 554.45 480.045 553.805 474.953 552.507C456.767 547.859 442.324 535.753 434.276 518.413C426.608 501.893 425.231 481.659 430.398 461.446C435.586 441.153 446.545 423.767 461.264 412.49C476.904 400.505 495.509 396.464 513.65 401.1C531.802 405.739 546.199 418.16 554.197 436.074C561.739 452.97 563.037 473.447 557.857 493.723C552.69 513.944 541.756 531.08 527.075 541.967C515.965 550.204 503.26 554.45 490.233 554.45ZM498.784 413.855C486.536 413.855 476.762 419.081 470.179 424.127C458.061 433.415 448.974 447.958 444.598 465.081C440.264 482.032 441.319 498.782 447.571 512.244C453.819 525.707 464.543 534.719 478.583 538.307C492.603 541.892 506.355 539.086 518.344 530.196C530.333 521.306 539.323 507.064 543.657 490.097C548.025 473.007 547.016 455.943 540.814 442.049C536.476 432.33 527.611 419.797 510.023 415.304C506.083 414.295 502.331 413.855 498.784 413.855Z" fill="#371A45"/>
<g opacity="0.25">
<path d="M550.759 491.902C541.07 529.79 510.308 553.973 476.762 545.414C457.022 540.355 443.547 525.921 437.818 507.157C446.198 516.616 456.805 522.445 468.525 522.918C497.561 524.087 522.448 491.939 524.093 451.086C524.705 435.936 522.025 421.702 516.924 409.755C546.886 420.66 559.934 455.977 550.759 491.902Z" fill="#371A45"/>
</g>
<path d="M502.941 547.821C499.625 547.821 496.275 547.407 492.912 546.548C479.202 543.043 468.663 532.885 463.231 517.944C458.202 504.1 457.876 486.91 462.314 469.536C466.774 452.091 475.354 436.907 486.472 426.777C498.612 415.718 512.832 411.552 526.525 415.052C540.214 418.553 550.712 428.98 556.081 444.419C561.009 458.59 561.269 475.993 556.814 493.421C548.342 526.557 526.622 547.821 502.941 547.821ZM516.928 426.396C507.711 426.396 500.073 431.379 494.935 436.065C485.609 444.562 478.348 457.556 474.492 472.647C470.668 487.597 470.865 502.157 475.044 513.651C477.85 521.377 483.771 531.243 496.028 534.375C516.019 539.484 536.915 520.54 544.645 490.31C548.497 475.244 548.346 460.411 544.218 448.544C541.433 440.529 535.562 430.328 523.418 427.221C521.178 426.652 519.013 426.396 516.928 426.396Z" fill="#371A45"/>
<path d="M504.504 413.013C501.519 413.013 498.868 410.877 498.328 407.833C473.194 266.756 372.334 191.553 228.51 206.632C225.047 206.992 221.97 204.492 221.609 201.042C221.245 197.591 223.749 194.501 227.2 194.141C294.861 187.043 355.978 199.492 403.942 230.145C460.469 266.27 496.385 325.314 510.693 405.63C511.301 409.047 509.027 412.31 505.61 412.917C505.241 412.984 504.873 413.013 504.504 413.013Z" fill="#371A45"/>
<g opacity="0.5">
<path d="M270.032 272.397C198.476 298.552 155.026 350.469 131.891 421.003C130.211 426.124 122.691 425.098 122.469 419.713C118.499 323.723 148.465 255.915 268.654 263.038C273.901 263.348 274.969 270.592 270.032 272.397Z" fill="#F8F8F8"/>
</g>
<g opacity="0.5">
<path d="M404.933 498.934C414.439 489.53 415.951 475.644 408.31 467.92C400.668 460.196 386.767 461.559 377.261 470.963C367.755 480.368 366.243 494.253 373.885 501.977C381.526 509.701 395.427 508.339 404.933 498.934Z" fill="#F8F8F8"/>
</g>
<g opacity="0.5">
<path d="M355.919 550.585C344.902 561.485 329.366 563.641 321.213 555.405C313.06 547.168 319.341 535.401 330.354 524.501C341.372 513.601 352.954 507.696 361.103 515.933C369.252 524.17 366.932 539.685 355.919 550.585Z" fill="#F8F8F8"/>
</g>
<path d="M284.328 633.183C247.399 633.183 210.436 625.139 177.535 608.155C174.453 606.563 173.242 602.774 174.834 599.692C176.425 596.61 180.215 595.399 183.297 596.991C276.351 645.026 403.681 617.773 461.334 537.482C463.361 534.664 467.284 534.023 470.103 536.046C472.921 538.068 473.566 541.996 471.543 544.81C430.903 601.396 357.706 633.183 284.328 633.183Z" fill="#371A45"/>
<path d="M315.112 860.77C300.268 860.77 284.891 856.917 268.907 849.241C253.363 841.775 238.887 831.185 225.885 817.76C209.323 800.666 195.848 781.375 183.956 764.352C163.294 734.772 146.972 711.406 124.824 710.443C122.441 710.338 120.255 709.082 118.97 707.072C117.684 705.066 117.454 702.553 118.358 700.347C118.572 699.823 140.447 647.844 197.728 650.972C217.275 652.031 236.077 659.531 252.099 672.663C257.844 677.374 263.187 682.47 268.082 687.914C278.547 690.02 315.317 699.287 317.822 725.719C318.797 736.007 312.432 745.622 301.608 750.22C290.984 754.73 279.975 752.803 273.555 745.312C264.163 734.357 265.105 716.096 265.968 708.625C263.74 705.522 261.37 702.516 258.857 699.614C258.769 699.517 258.681 699.417 258.598 699.312C253.816 693.818 248.535 688.693 242.807 683.998C229.21 672.856 213.348 666.495 196.933 665.603C162.796 663.769 144.233 685.196 136.411 697.562C159.84 704.232 176.766 728.461 195.965 755.952C208.109 773.335 220.663 791.307 236.404 807.555C248.2 819.728 261.269 829.305 275.247 836.022C325.585 860.204 366.275 841.909 407.17 776.693C409.323 773.263 413.841 772.225 417.27 774.377C420.7 776.525 421.734 781.048 419.586 784.478C387.61 835.49 353.126 860.77 315.112 860.77ZM280.955 706.812C280.955 707.218 280.917 707.624 280.85 708.031C280 713.064 278.874 728.993 284.686 735.777C287.165 738.666 292.098 738.34 295.883 736.732C299.547 735.174 303.672 731.723 303.232 727.105C302.332 717.561 291.608 710.928 280.955 706.812Z" fill="#371A45"/>
<path d="M304.191 726.975C315.54 714.639 327.403 701.034 339.84 689.773C333.345 700.318 327.336 712.604 321.833 723.738C320.054 727.344 318.002 731.824 316.122 735.48C316.126 735.484 304.191 726.975 304.191 726.975Z" fill="#371A45"/>
<path d="M201.862 772.79C199.106 772.79 196.276 772.631 193.374 772.296C189.927 771.898 187.457 768.779 187.855 765.332C188.252 761.886 191.368 759.407 194.814 759.813C240.169 765.081 265.688 716.196 265.939 715.706C267.513 712.616 271.299 711.393 274.389 712.968C277.48 714.546 278.707 718.328 277.128 721.418C275.997 723.629 250.307 772.79 201.862 772.79Z" fill="#371A45"/>
<path d="M95.1551 714.571C90.0798 714.571 84.9124 714.153 80.0801 713.06C76.1313 712.164 73.6564 708.24 74.5525 704.295C75.4445 700.347 79.3766 697.88 83.317 698.764C99.7404 702.491 122.939 696.125 123.174 696.063C127.072 694.974 131.113 697.256 132.198 701.151C133.286 705.049 131.013 709.09 127.114 710.179C126.289 710.413 111.168 714.571 95.1551 714.571Z" fill="#371A45"/>
<path d="M89.5697 813.464C69.5409 813.464 56.744 811.056 55.5128 810.817C51.5431 810.038 48.9552 806.186 49.7341 802.216C50.513 798.246 54.3613 795.671 58.3268 796.433C59.0094 796.567 127.58 809.276 200.032 772.489C203.641 770.655 208.051 772.095 209.885 775.705C211.719 779.315 210.279 783.728 206.669 785.558C161.339 808.573 118.112 813.464 89.5697 813.464Z" fill="#371A45"/>
<path d="M164.333 801.06C163.031 801.06 161.72 800.658 160.594 799.825C111.696 763.545 131.382 703.76 131.587 703.161C132.709 699.878 136.273 698.119 139.56 699.246C142.839 700.364 144.593 703.927 143.479 707.206C142.772 709.304 126.637 758.989 168.077 789.737C170.861 791.806 171.443 795.738 169.379 798.527C168.152 800.185 166.255 801.06 164.333 801.06Z" fill="#371A45"/>
<path d="M143.29 637.693C131.519 654.209 121.95 672.282 114.388 691.042C111.85 697.223 109.735 703.542 107.73 709.831L94.1621 704.283C107.018 679.736 123.521 657.069 143.29 637.693Z" fill="#371A45"/>
<path d="M256.889 896.556C253.225 896.556 249.569 895.957 246.094 894.772L89.2633 841.277C80.5533 838.308 75.231 829.548 76.617 820.444L78.9788 804.934C79.5902 800.93 83.3212 798.175 87.3244 798.791C91.3235 799.402 94.0747 803.137 93.4675 807.136L91.1058 822.647C90.7917 824.728 92.0019 826.725 93.991 827.404L250.825 880.899C253.794 881.912 257.002 882.168 260.092 881.624L278.078 878.483C280.628 878.039 282.73 876.238 283.567 873.789L291.285 851.113C292.587 847.282 296.75 845.234 300.585 846.536C304.417 847.843 306.465 852.005 305.162 855.837L297.445 878.512C294.882 886.037 288.429 891.556 280.603 892.921L262.617 896.062C260.725 896.393 258.807 896.556 256.889 896.556Z" fill="#371A45"/>
<path d="M246.856 893.324C245.013 893.324 243.158 893.089 241.328 892.62L235.353 891.083C231.433 890.074 229.072 886.084 230.081 882.164C231.086 878.245 235.081 875.879 239.004 876.892L244.98 878.429C246.902 878.923 248.904 878.634 250.608 877.612C252.312 876.59 253.51 874.966 253.979 873.035L262.144 839.51C263.103 835.578 267.069 833.158 270.997 834.125C274.929 835.084 277.341 839.045 276.382 842.977L268.216 876.503C266.813 882.269 263.233 887.13 258.141 890.183C254.674 892.256 250.796 893.324 246.856 893.324Z" fill="#371A45"/>
<path d="M178.713 868.182C178.194 868.182 177.666 868.115 177.139 867.981C173.78 867.11 171.762 863.688 172.629 860.326L184.458 814.561L177.109 789.955C176.117 786.63 178.005 783.133 181.33 782.137C184.651 781.149 188.152 783.033 189.144 786.358L196.991 812.643C197.318 813.74 197.343 814.904 197.054 816.014L184.785 863.471C184.06 866.301 181.51 868.182 178.713 868.182Z" fill="#371A45"/>
<path d="M233.762 849.162C220.337 849.162 209.412 837.421 209.412 822.991C209.412 813.761 213.997 805.127 221.376 800.453C224.307 798.602 228.189 799.469 230.044 802.401C231.899 805.332 231.028 809.209 228.097 811.069C224.32 813.46 221.975 818.028 221.975 822.991C221.975 830.495 227.263 836.6 233.762 836.6C238.62 836.6 243.046 833.07 244.776 827.81C245.86 824.515 249.407 822.723 252.707 823.807C256.002 824.892 257.794 828.438 256.714 831.734C253.285 842.161 244.059 849.162 233.762 849.162Z" fill="#371A45"/>
<path d="M145.908 1091.51C146.499 1057.7 148.266 1024.5 156.08 991.307L161.934 1000.33C155.619 998.509 150.066 996.349 144.179 993.769C127.521 986.32 111.102 976.052 100.893 960.654C109.33 969.08 119.837 974.645 130.875 978.631C139.099 981.491 147.537 983.581 156.113 984.9C158.902 985.34 161.892 985.716 164.434 985.888C168.106 986.131 170.891 989.305 170.648 992.982C166.883 1009.1 164.358 1025.77 162.926 1042.69C161.519 1058.88 160.698 1075.4 160.573 1091.61C160.225 1101.24 146.159 1101.24 145.908 1091.51Z" fill="#371A45"/>
<path d="M53.7835 867.135C51.6688 880.158 52.0457 894.102 56.9241 906.568C49.7132 898.541 45.0442 888.42 41.8282 878.139C40.6766 874.304 39.7009 870.803 39.0602 866.708C37.9966 854.928 55.5255 855.431 53.7835 867.135Z" fill="#371A45"/>
<path d="M165.326 1014.1C148.94 1028.37 130.595 1041.45 109.268 1046.5C123.476 1039.64 134.841 1028.45 144.941 1016.61C148.224 1012.7 151.515 1008.51 154.229 1004.53L165.326 1014.1Z" fill="#371A45"/>
<path d="M228.501 1158.85C197.443 1158.85 165.48 1152.53 148.365 1139.61C145.137 1137.17 144.492 1132.57 146.929 1129.34C149.366 1126.11 153.96 1125.47 157.192 1127.91C170.932 1138.28 200.261 1144.68 231.952 1144.13C261.78 1143.64 287.583 1136.93 294.71 1127.81C297.202 1124.62 301.808 1124.05 304.995 1126.54C308.185 1129.03 308.751 1133.64 306.259 1136.83C294.886 1151.39 262.232 1158.85 228.501 1158.85Z" fill="#371A45"/>
<path d="M154.793 1177.38C175.831 1178.99 195.78 1189.78 209.766 1205.28C194.432 1194.95 175.601 1189.46 157.213 1191.74C156.795 1191.81 156.179 1191.88 155.865 1192C155.865 1191.99 154.793 1177.38 154.793 1177.38Z" fill="#371A45"/>
<path d="M440.243 923.063C425.637 923.063 408.402 920.462 393.615 911.128C390.194 908.968 389.168 904.441 391.329 901.02C393.49 897.599 398.012 896.573 401.438 898.733C417.304 908.75 437.425 909.223 451.503 907.85C459.167 907.104 465.636 901.56 467.596 894.052C474.342 868.211 486.402 821.914 491.331 802.203C492.39 797.97 491.775 793.556 489.601 789.766L481.595 775.814L419.553 778.272C415.504 778.468 412.099 775.286 411.94 771.241C411.781 767.196 414.926 763.787 418.971 763.628L485.452 760.994C488.182 760.877 490.74 762.301 492.097 764.666L502.31 782.468C506.381 789.557 507.528 797.827 505.547 805.758C500.602 825.532 488.529 871.883 481.775 897.754C478.27 911.179 466.675 921.099 452.923 922.435C449.054 922.812 444.774 923.063 440.243 923.063Z" fill="#371A45"/>
<path d="M497.897 800.792C484.866 797.777 470.913 796.337 457.429 796.601C452.81 796.672 448.212 797.107 443.568 797.694C447.881 795.931 452.312 794.277 456.855 792.983C470.804 788.98 484.861 786.748 499.476 786.224C499.48 786.22 497.897 800.792 497.897 800.792Z" fill="#371A45"/>
<g opacity="0.25">
<path d="M140.54 680.615C140.54 680.615 162.018 672.416 184.844 696.842C207.674 721.268 256.877 793.678 301.369 802.576C345.862 811.475 389.83 750.811 383.026 713.881C376.221 676.951 367.322 669.623 367.322 669.623C367.322 669.623 283.413 669.033 234.411 629.453C293.995 646.303 349.27 647.178 398.457 625.491C398.457 625.491 448.447 662.09 438.116 708.014C427.786 753.939 419.185 780.592 401.89 797.69C384.596 814.787 338.688 882.315 263.757 838.258C188.826 794.201 205.58 754.42 147.303 713.592L130.138 701.729C130.138 701.729 126.571 692.152 140.54 680.615Z" fill="#371A45"/>
</g>
<g opacity="0.25">
<path d="M406.202 858.94C405.972 860.489 405.742 862.039 405.49 863.609C396.404 921.229 376.974 994.929 335.392 1037.08C335.392 1037.08 299.107 1075.81 300.489 1133.03V1254.6C300.489 1263.79 293.056 1271.22 283.865 1271.22H126.875C119.505 1271.22 113.035 1266.34 110.921 1259.26C109.581 1254.85 108.722 1250.53 108.262 1246.37C120.615 1246.1 161.108 1245.26 209.767 1244.55C268.392 1243.69 262.11 1189.92 253.212 1091.51C244.335 993.107 328.064 967.459 343.243 928.662C358.423 889.886 329.634 870.267 329.634 870.267H373.31C385.055 841.646 364.453 834.234 364.453 834.234L386.333 816.186L414.368 779.021L414.389 779.042C414.054 779.545 413.719 780.068 413.384 780.592C413.384 780.592 413.154 796.923 410.746 821.839C410.641 822.865 410.557 823.911 410.453 824.979C424.816 830.779 417.257 853.978 406.202 858.94Z" fill="#371A45"/>
</g>
<g opacity="0.25">
<path d="M147.303 713.592C147.303 713.592 175.221 752.406 127.064 766.501C78.9082 780.596 35.4629 760.479 26.5645 742.532C26.5645 742.532 37.0918 796.613 59.4405 804.042C81.7892 811.47 171.573 837.529 211.258 792.832C211.258 792.836 174.521 735.576 147.303 713.592Z" fill="#371A45"/>
</g>
<g opacity="0.25">
<path d="M76.8521 1077.67C140 1072.08 134.099 1023.73 66.3457 937.1C66.3457 937.1 94.0879 973.74 163.182 990.49L153.287 1086.79C153.287 1086.79 98.3549 1089.2 76.8521 1077.67Z" fill="#371A45"/>
</g>
<g opacity="0.25">
<path d="M98.7028 836.75C98.7028 836.75 87.2793 868.006 159.777 898.365C232.276 928.725 289.854 934.483 298.229 912.498C306.604 890.514 306.382 863.613 306.382 863.613L298.229 851.62L268.866 842.881C268.866 842.881 264.226 873.575 253.226 881.259C242.225 888.943 213.587 875.937 213.587 875.937L98.7028 836.75Z" fill="#371A45"/>
</g>
<g opacity="0.25">
<path d="M492.989 825.356C487.189 847.947 479.421 877.742 474.689 895.894C472.24 905.233 464.911 912.351 455.72 914.55L454.736 919.302C454.736 919.302 435.034 1015.87 364.726 1002.59C362.381 1000.79 360.81 999.305 360.161 998.677C359.931 998.467 359.826 998.342 359.826 998.342L359.91 998.132L392.614 924.013L398.582 898.428L401.869 884.4C401.869 884.4 399.775 876.381 410.516 862.499C421.236 848.638 415.017 818.363 415.017 818.363L414.703 799.121L414.368 779.021L418.326 776.718L428.92 770.583L428.941 770.562C428.941 770.562 428.941 770.563 428.941 770.583C429.004 771.672 431.139 810.281 439.514 836.746C443.911 850.586 458.295 846.859 471.214 840.012C480.929 834.861 489.806 827.931 492.989 825.356Z" fill="#371A45"/>
</g>
<path d="M322.99 757.037C325.102 757.147 327.189 757.256 329.277 757.364C329.281 757.382 329.285 757.4 329.289 757.418C329.186 757.467 329.084 757.516 328.98 757.564C326.962 758.498 324.944 759.435 322.923 760.361C322.706 760.461 322.635 760.562 322.618 760.749C322.492 762.192 322.351 763.636 322.215 765.079C322.206 765.166 322.191 765.255 322.173 765.389C321.471 764.77 320.806 764.182 320.14 763.595C319.724 763.228 319.298 762.869 318.897 762.491C318.747 762.35 318.623 762.329 318.374 762.446C316.392 763.381 314.403 764.3 312.417 765.225C312.337 765.262 312.258 765.3 312.097 765.376C312.185 765.249 312.227 765.179 312.279 765.115C313.547 763.563 314.811 762.009 316.09 760.463C316.285 760.228 316.319 760.097 316.105 759.91C314.877 758.839 313.673 757.747 312.461 756.663C312.416 756.622 312.375 756.579 312.294 756.501C312.439 756.503 312.533 756.501 312.626 756.506C314.664 756.619 316.704 756.729 318.74 756.848C318.946 756.861 319.064 756.81 319.195 756.648C320.533 754.995 321.879 753.347 323.223 751.697C323.302 751.601 323.381 751.505 323.52 751.408C323.344 753.273 323.169 755.14 322.99 757.037Z" fill="#A60000"/>
<path d="M328.256 753.539C331.329 751.824 337.164 748.808 338.582 748.077L329.564 761.654C329.58 761.66 329.596 761.667 329.61 761.673C329.652 761.631 329.695 761.59 329.736 761.546C334.283 756.739 338.84 751.941 343.371 747.12C347.018 743.24 350.735 739.44 354.784 735.962C360.909 730.703 366.961 725.36 373.044 720.052C373.265 719.859 373.485 719.665 373.705 719.471C372.802 719.996 371.941 720.572 371.077 721.144C365.05 725.136 359.023 729.127 352.994 733.116C350.529 734.748 348.025 736.326 345.343 737.578C342.349 738.976 339.312 740.282 336.285 741.61C329.909 744.406 323.528 747.189 317.149 749.978C316.95 750.065 316.754 750.157 316.557 750.246L316.583 750.31C322.935 748.67 329.287 747.029 335.638 745.389C334.466 746.703 328.24 753.521 328.256 753.539Z" fill="#4A5AC5"/>
<path d="M534.234 872.533C538.305 872.745 542.327 872.954 546.349 873.163C546.357 873.198 546.365 873.232 546.373 873.267C546.175 873.36 545.978 873.456 545.778 873.548C541.888 875.347 538 877.153 534.104 878.938C533.686 879.13 533.55 879.324 533.518 879.686C533.273 882.466 533.003 885.248 532.74 888.03C532.724 888.199 532.694 888.369 532.659 888.628C531.307 887.435 530.025 886.302 528.741 885.171C527.939 884.464 527.119 883.772 526.346 883.044C526.056 882.771 525.818 882.729 525.338 882.956C521.518 884.757 517.686 886.529 513.857 888.311C513.704 888.382 513.552 888.455 513.241 888.602C513.412 888.357 513.492 888.223 513.592 888.099C516.036 885.108 518.471 882.115 520.937 879.134C521.312 878.681 521.378 878.428 520.965 878.069C518.598 876.004 516.279 873.901 513.944 871.811C513.857 871.733 513.778 871.65 513.622 871.5C513.901 871.503 514.082 871.5 514.26 871.509C518.19 871.726 522.12 871.938 526.044 872.169C526.44 872.192 526.667 872.095 526.92 871.782C529.498 868.597 532.093 865.42 534.683 862.242C534.835 862.057 534.987 861.871 535.255 861.685C534.917 865.279 534.578 868.875 534.234 872.533Z" fill="#A60000"/>
<path d="M526.205 882.623L513.205 888.623L521.205 878.123L513.705 871.623L526.205 872.123L532.705 888.623L526.205 882.623Z" fill="#8E0000"/>
<path d="M544.383 865.791C550.305 862.487 561.549 856.674 564.282 855.265L546.903 881.429C546.934 881.442 546.965 881.455 546.991 881.467C547.072 881.385 547.155 881.306 547.236 881.221C555.998 871.957 564.779 862.712 573.511 853.421C580.54 845.944 587.702 838.62 595.505 831.919C607.309 821.783 618.972 811.487 630.694 801.258C631.121 800.885 631.545 800.511 631.969 800.137C630.229 801.15 628.569 802.26 626.904 803.362C615.29 811.054 603.674 818.746 592.056 826.434C587.304 829.578 582.479 832.62 577.312 835.033C571.542 837.726 565.689 840.244 559.856 842.802C547.569 848.19 535.27 853.554 522.977 858.929C522.595 859.096 522.217 859.274 521.837 859.446C521.854 859.486 521.871 859.528 521.888 859.568C534.128 856.407 546.368 853.245 558.609 850.084C556.349 852.616 544.351 865.757 544.383 865.791Z" fill="#313E97"/>
<path d="M631.205 800.623L579.205 834.123L521.705 859.623L558.705 850.123C595.205 829.623 587.705 834.123 603.705 821.123L631.205 800.623Z" fill="#4A5AC5"/>
<path d="M507.777 934.123H506.605V906.279H507.777V934.123ZM513.425 918.607L513.871 919.24L522.941 906.279H524.371L514.574 920.248L524.277 934.123H522.871L511.761 918.279V919.498L522.004 934.123H520.855L511.761 921.139V922.381L519.988 934.123H519.144L511.761 923.576V924.42L518.558 934.123H517.996L511.761 925.217V934.123H511.293V906.279H511.761V915.303L518.066 906.279H518.629L511.761 916.076V916.24L512.089 916.686L512.019 916.568L519.214 906.279H520.082L512.418 917.178L512.863 917.811L520.925 906.279H522.074L513.425 918.607ZM510.824 934.123H510.121V906.279H510.824V934.123ZM509.418 934.123H508.48V906.279H509.418V934.123ZM542.697 905.998C546.588 905.998 549.9 907.373 552.634 910.123C555.384 912.857 556.759 916.17 556.759 920.061C556.759 923.951 555.384 927.271 552.634 930.021C549.9 932.756 546.588 934.123 542.697 934.123C538.806 934.123 535.494 932.756 532.759 930.021C530.009 927.271 528.634 923.951 528.634 920.061C528.634 916.17 530.009 912.857 532.759 910.123C535.494 907.373 538.806 905.998 542.697 905.998ZM551.814 910.943C549.299 908.428 546.259 907.17 542.697 907.17C539.134 907.17 536.095 908.428 533.58 910.943C531.064 913.459 529.806 916.498 529.806 920.061C529.806 923.623 531.064 926.662 533.58 929.178C536.095 931.693 539.134 932.951 542.697 932.951C546.259 932.951 549.299 931.693 551.814 929.178C554.33 926.662 555.588 923.623 555.588 920.061C555.588 916.498 554.33 913.459 551.814 910.943ZM551.322 911.459C548.931 909.068 546.056 907.873 542.697 907.873C539.338 907.873 536.463 909.068 534.072 911.459C531.697 913.834 530.509 916.701 530.509 920.061C530.509 923.42 531.697 926.295 534.072 928.686C536.463 931.061 539.338 932.248 542.697 932.248C546.056 932.248 548.931 931.061 551.322 928.686C553.697 926.295 554.884 923.42 554.884 920.061C554.884 916.701 553.697 913.834 551.322 911.459ZM542.697 909.514C545.603 909.514 548.088 910.545 550.15 912.607C552.213 914.67 553.244 917.154 553.244 920.061C553.244 922.967 552.213 925.451 550.15 927.514C548.088 929.576 545.603 930.607 542.697 930.607C539.791 930.607 537.306 929.576 535.244 927.514C533.181 925.451 532.15 922.967 532.15 920.061C532.15 917.154 533.181 914.67 535.244 912.607C537.306 910.545 539.791 909.514 542.697 909.514ZM542.697 908.811C545.806 908.811 548.463 909.912 550.666 912.115C552.853 914.303 553.947 916.951 553.947 920.061C553.947 923.17 552.853 925.826 550.666 928.029C548.463 930.217 545.806 931.311 542.697 931.311C539.588 931.311 536.931 930.217 534.728 928.029C532.541 925.826 531.447 923.17 531.447 920.061C531.447 916.951 532.541 914.303 534.728 912.115C536.931 909.912 539.588 908.811 542.697 908.811ZM549.33 913.428C547.502 911.6 545.291 910.686 542.697 910.686C540.103 910.686 537.892 911.6 536.064 913.428C534.236 915.256 533.322 917.467 533.322 920.061C533.322 922.654 534.236 924.865 536.064 926.693C537.892 928.521 540.103 929.436 542.697 929.436C545.291 929.436 547.502 928.521 549.33 926.693C551.158 924.865 552.072 922.654 552.072 920.061C552.072 917.467 551.158 915.256 549.33 913.428ZM549.658 913.1C547.736 911.178 545.416 910.217 542.697 910.217C539.978 910.217 537.658 911.178 535.736 913.1C533.814 915.021 532.853 917.342 532.853 920.061C532.853 922.779 533.814 925.1 535.736 927.021C537.658 928.943 539.978 929.904 542.697 929.904C545.416 929.904 547.736 928.943 549.658 927.021C551.58 925.1 552.541 922.779 552.541 920.061C552.541 917.342 551.58 915.021 549.658 913.1ZM542.697 911.154C545.15 911.154 547.252 912.029 549.002 913.779C550.736 915.514 551.603 917.607 551.603 920.061C551.603 922.514 550.736 924.615 549.002 926.365C547.252 928.1 545.15 928.967 542.697 928.967C540.244 928.967 538.142 928.1 536.392 926.365C534.658 924.615 533.791 922.514 533.791 920.061C533.791 917.607 534.658 915.514 536.392 913.779C538.142 912.029 540.244 911.154 542.697 911.154ZM585.023 910.123L584.203 910.943C581.687 908.428 578.648 907.17 575.086 907.17C571.523 907.17 568.484 908.428 565.969 910.943C563.453 913.459 562.195 916.498 562.195 920.061C562.195 923.623 563.453 926.662 565.969 929.178C568.484 931.693 571.523 932.951 575.086 932.951C578.648 932.951 581.687 931.693 584.203 929.178L585.023 930.021C582.289 932.756 578.976 934.123 575.086 934.123C571.195 934.123 567.883 932.756 565.148 930.021C562.398 927.271 561.023 923.951 561.023 920.061C561.023 916.17 562.398 912.857 565.148 910.123C567.883 907.373 571.195 905.998 575.086 905.998C578.976 905.998 582.289 907.373 585.023 910.123ZM583.711 928.686L583.054 928.029C580.851 930.217 578.195 931.311 575.086 931.311C571.976 931.311 569.32 930.217 567.117 928.029C564.929 925.826 563.836 923.17 563.836 920.061C563.836 916.951 564.929 914.303 567.117 912.115C569.32 909.912 571.976 908.811 575.086 908.811C578.195 908.811 580.851 909.912 583.054 912.115L583.711 911.459C581.32 909.068 578.445 907.873 575.086 907.873C571.726 907.873 568.851 909.068 566.461 911.459C564.086 913.834 562.898 916.701 562.898 920.061C562.898 923.42 564.086 926.295 566.461 928.686C568.851 931.061 571.726 932.248 575.086 932.248C578.445 932.248 581.32 931.061 583.711 928.686ZM582.539 912.607L582.047 913.1C580.125 911.178 577.804 910.217 575.086 910.217C572.367 910.217 570.047 911.178 568.125 913.1C566.203 915.021 565.242 917.342 565.242 920.061C565.242 922.779 566.203 925.1 568.125 927.021C570.047 928.943 572.367 929.904 575.086 929.904C577.804 929.904 580.125 928.943 582.047 927.021L582.539 927.514C580.476 929.576 577.992 930.607 575.086 930.607C572.179 930.607 569.695 929.576 567.633 927.514C565.57 925.451 564.539 922.967 564.539 920.061C564.539 917.154 565.57 914.67 567.633 912.607C569.695 910.545 572.179 909.514 575.086 909.514C577.992 909.514 580.476 910.545 582.539 912.607ZM581.719 926.693L581.39 926.365C579.64 928.1 577.539 928.967 575.086 928.967C572.633 928.967 570.531 928.1 568.781 926.365C567.047 924.615 566.179 922.514 566.179 920.061C566.179 917.607 567.047 915.514 568.781 913.779C570.531 912.029 572.633 911.154 575.086 911.154C577.539 911.154 579.64 912.029 581.39 913.779L581.719 913.428C579.89 911.6 577.679 910.686 575.086 910.686C572.492 910.686 570.281 911.6 568.453 913.428C566.625 915.256 565.711 917.467 565.711 920.061C565.711 922.654 566.625 924.865 568.453 926.693C570.281 928.521 572.492 929.436 575.086 929.436C577.679 929.436 579.89 928.521 581.719 926.693ZM601.521 908.506L601.146 909.842L607.639 934.123H606.654L600.654 911.693L600.303 913.076L605.928 934.123H605.201L599.928 914.436L599.693 915.326L604.732 934.123H604.217L599.435 916.264L594.654 934.123H594.139L601.615 906.279H602.107L606.912 924.162L611.693 906.279H612.209L619.685 934.123H619.17L614.389 916.264L609.584 934.123H608.365L601.521 908.506ZM620.881 934.123H620.154L612.701 906.279H613.428L620.881 934.123ZM622.592 934.123H621.607L614.154 906.279H615.139L622.592 934.123ZM624.537 934.123H623.318L615.865 906.279H617.06L624.537 934.123ZM600.396 906.279H601.123L593.67 934.123H592.943L600.396 906.279ZM598.685 906.279H599.67L592.217 934.123H591.232L598.685 906.279ZM596.764 906.279H597.959L590.506 934.123H589.287L596.764 906.279ZM613.404 912.631L608.623 930.561L608.998 931.896L613.779 913.99L613.404 912.631ZM611.951 907.193L607.146 925.076L607.404 925.99L612.185 908.061L611.951 907.193ZM612.56 909.443L607.756 927.35L608.131 928.709L612.935 910.803L612.56 909.443ZM642.863 905.998C646.754 905.998 650.066 907.373 652.801 910.123C655.551 912.857 656.926 916.17 656.926 920.061C656.926 923.951 655.551 927.271 652.801 930.021C650.066 932.756 646.754 934.123 642.863 934.123C638.973 934.123 635.66 932.756 632.926 930.021C630.176 927.271 628.801 923.951 628.801 920.061C628.801 916.17 630.176 912.857 632.926 910.123C635.66 907.373 638.973 905.998 642.863 905.998ZM651.98 910.943C649.465 908.428 646.426 907.17 642.863 907.17C639.301 907.17 636.262 908.428 633.746 910.943C631.23 913.459 629.973 916.498 629.973 920.061C629.973 923.623 631.23 926.662 633.746 929.178C636.262 931.693 639.301 932.951 642.863 932.951C646.426 932.951 649.465 931.693 651.98 929.178C654.496 926.662 655.754 923.623 655.754 920.061C655.754 916.498 654.496 913.459 651.98 910.943ZM651.488 911.459C649.098 909.068 646.223 907.873 642.863 907.873C639.504 907.873 636.629 909.068 634.238 911.459C631.863 913.834 630.676 916.701 630.676 920.061C630.676 923.42 631.863 926.295 634.238 928.686C636.629 931.061 639.504 932.248 642.863 932.248C646.223 932.248 649.098 931.061 651.488 928.686C653.863 926.295 655.051 923.42 655.051 920.061C655.051 916.701 653.863 913.834 651.488 911.459ZM642.863 909.514C645.769 909.514 648.254 910.545 650.316 912.607C652.379 914.67 653.41 917.154 653.41 920.061C653.41 922.967 652.379 925.451 650.316 927.514C648.254 929.576 645.769 930.607 642.863 930.607C639.957 930.607 637.473 929.576 635.41 927.514C633.348 925.451 632.316 922.967 632.316 920.061C632.316 917.154 633.348 914.67 635.41 912.607C637.473 910.545 639.957 909.514 642.863 909.514ZM642.863 908.811C645.973 908.811 648.629 909.912 650.832 912.115C653.019 914.303 654.113 916.951 654.113 920.061C654.113 923.17 653.019 925.826 650.832 928.029C648.629 930.217 645.973 931.311 642.863 931.311C639.754 931.311 637.098 930.217 634.894 928.029C632.707 925.826 631.613 923.17 631.613 920.061C631.613 916.951 632.707 914.303 634.894 912.115C637.098 909.912 639.754 908.811 642.863 908.811ZM649.496 913.428C647.668 911.6 645.457 910.686 642.863 910.686C640.269 910.686 638.059 911.6 636.23 913.428C634.402 915.256 633.488 917.467 633.488 920.061C633.488 922.654 634.402 924.865 636.23 926.693C638.059 928.521 640.269 929.436 642.863 929.436C645.457 929.436 647.668 928.521 649.496 926.693C651.324 924.865 652.238 922.654 652.238 920.061C652.238 917.467 651.324 915.256 649.496 913.428ZM649.824 913.1C647.902 911.178 645.582 910.217 642.863 910.217C640.144 910.217 637.824 911.178 635.902 913.1C633.98 915.021 633.019 917.342 633.019 920.061C633.019 922.779 633.98 925.1 635.902 927.021C637.824 928.943 640.144 929.904 642.863 929.904C645.582 929.904 647.902 928.943 649.824 927.021C651.746 925.1 652.707 922.779 652.707 920.061C652.707 917.342 651.746 915.021 649.824 913.1ZM642.863 911.154C645.316 911.154 647.418 912.029 649.168 913.779C650.902 915.514 651.769 917.607 651.769 920.061C651.769 922.514 650.902 924.615 649.168 926.365C647.418 928.1 645.316 928.967 642.863 928.967C640.41 928.967 638.309 928.1 636.559 926.365C634.824 924.615 633.957 922.514 633.957 920.061C633.957 917.607 634.824 915.514 636.559 913.779C638.309 912.029 640.41 911.154 642.863 911.154ZM685.189 910.123L684.369 910.943C681.854 908.428 678.814 907.17 675.252 907.17C671.689 907.17 668.65 908.428 666.135 910.943C663.619 913.459 662.361 916.498 662.361 920.061C662.361 923.623 663.619 926.662 666.135 929.178C668.65 931.693 671.689 932.951 675.252 932.951C678.814 932.951 681.854 931.693 684.369 929.178L685.189 930.021C682.455 932.756 679.143 934.123 675.252 934.123C671.361 934.123 668.049 932.756 665.314 930.021C662.564 927.271 661.189 923.951 661.189 920.061C661.189 916.17 662.564 912.857 665.314 910.123C668.049 907.373 671.361 905.998 675.252 905.998C679.143 905.998 682.455 907.373 685.189 910.123ZM683.877 928.686L683.221 928.029C681.018 930.217 678.361 931.311 675.252 931.311C672.143 931.311 669.486 930.217 667.283 928.029C665.096 925.826 664.002 923.17 664.002 920.061C664.002 916.951 665.096 914.303 667.283 912.115C669.486 909.912 672.143 908.811 675.252 908.811C678.361 908.811 681.018 909.912 683.221 912.115L683.877 911.459C681.486 909.068 678.611 907.873 675.252 907.873C671.893 907.873 669.018 909.068 666.627 911.459C664.252 913.834 663.064 916.701 663.064 920.061C663.064 923.42 664.252 926.295 666.627 928.686C669.018 931.061 671.893 932.248 675.252 932.248C678.611 932.248 681.486 931.061 683.877 928.686ZM682.705 912.607L682.213 913.1C680.291 911.178 677.971 910.217 675.252 910.217C672.533 910.217 670.213 911.178 668.291 913.1C666.369 915.021 665.408 917.342 665.408 920.061C665.408 922.779 666.369 925.1 668.291 927.021C670.213 928.943 672.533 929.904 675.252 929.904C677.971 929.904 680.291 928.943 682.213 927.021L682.705 927.514C680.643 929.576 678.158 930.607 675.252 930.607C672.346 930.607 669.861 929.576 667.799 927.514C665.736 925.451 664.705 922.967 664.705 920.061C664.705 917.154 665.736 914.67 667.799 912.607C669.861 910.545 672.346 909.514 675.252 909.514C678.158 909.514 680.643 910.545 682.705 912.607ZM681.885 926.693L681.557 926.365C679.807 928.1 677.705 928.967 675.252 928.967C672.799 928.967 670.697 928.1 668.947 926.365C667.213 924.615 666.346 922.514 666.346 920.061C666.346 917.607 667.213 915.514 668.947 913.779C670.697 912.029 672.799 911.154 675.252 911.154C677.705 911.154 679.807 912.029 681.557 913.779L681.885 913.428C680.057 911.6 677.846 910.686 675.252 910.686C672.658 910.686 670.447 911.6 668.619 913.428C666.791 915.256 665.877 917.467 665.877 920.061C665.877 922.654 666.791 924.865 668.619 926.693C670.447 928.521 672.658 929.436 675.252 929.436C677.846 929.436 680.057 928.521 681.885 926.693ZM629.084 951.482V954.529H632.131C632.959 954.529 633.67 954.232 634.264 953.639C634.873 953.045 635.178 952.326 635.178 951.482C635.178 950.639 634.873 949.92 634.264 949.326C633.67 948.732 632.959 948.436 632.131 948.436C631.287 948.436 630.568 948.732 629.974 949.326C629.381 949.92 629.084 950.639 629.084 951.482ZM636.818 962.732V971.123H636.115V962.732C636.115 961.623 635.724 960.686 634.943 959.92C634.162 959.139 633.224 958.748 632.131 958.748H629.084V959.217H632.131C633.099 959.217 633.928 959.561 634.615 960.248C635.303 960.936 635.646 961.764 635.646 962.732V971.123H635.178V962.732C635.178 961.889 634.873 961.17 634.264 960.576C633.67 959.982 632.959 959.686 632.131 959.686H629.084V971.123H628.615V951.482C628.615 950.514 628.959 949.686 629.646 948.998C630.334 948.311 631.162 947.967 632.131 947.967C633.099 947.967 633.928 948.311 634.615 948.998C635.303 949.686 635.646 950.514 635.646 951.482C635.646 952.451 635.303 953.279 634.615 953.967C634.318 954.264 633.998 954.49 633.654 954.646C633.889 954.693 634.115 954.748 634.334 954.811C634.553 954.654 634.756 954.482 634.943 954.295C635.724 953.529 636.115 952.592 636.115 951.482C636.115 950.373 635.724 949.436 634.943 948.67C634.162 947.889 633.224 947.498 632.131 947.498C631.021 947.498 630.084 947.889 629.318 948.67C628.537 949.436 628.146 950.373 628.146 951.482V971.123H627.443V951.482C627.443 950.186 627.904 949.084 628.826 948.178C629.732 947.256 630.834 946.795 632.131 946.795C633.412 946.795 634.514 947.256 635.435 948.178C636.357 949.084 636.818 950.186 636.818 951.482C636.818 952.779 636.357 953.881 635.435 954.787C635.342 954.881 635.24 954.975 635.131 955.068C635.365 955.162 635.599 955.264 635.834 955.373C635.865 955.342 635.896 955.311 635.928 955.279C636.99 954.232 637.521 952.967 637.521 951.482C637.521 949.982 636.99 948.709 635.928 947.662C634.881 946.615 633.615 946.092 632.131 946.092C630.631 946.092 629.357 946.615 628.31 947.662C627.264 948.709 626.74 949.982 626.74 951.482V971.123H625.803V951.482C625.803 949.732 626.42 948.24 627.654 947.006C628.889 945.771 630.381 945.154 632.131 945.154C633.865 945.154 635.349 945.771 636.584 947.006C637.834 948.24 638.459 949.732 638.459 951.482C638.459 953.186 637.865 954.646 636.678 955.865C636.865 956.006 637.053 956.146 637.24 956.287C638.521 954.943 639.162 953.342 639.162 951.482C639.162 949.529 638.474 947.873 637.099 946.514C635.724 945.139 634.068 944.451 632.131 944.451C630.178 944.451 628.521 945.139 627.162 946.514C625.787 947.873 625.099 949.529 625.099 951.482V971.123H623.928V951.482C623.928 949.217 624.724 947.279 626.318 945.67C627.928 944.076 629.865 943.279 632.131 943.279C634.396 943.279 636.334 944.076 637.943 945.67C639.537 947.279 640.334 949.217 640.334 951.482C640.334 953.654 639.599 955.529 638.131 957.107C639.599 958.686 640.334 960.561 640.334 962.732V971.123H639.162V962.732C639.162 960.779 638.474 959.123 637.099 957.764C635.724 956.389 634.068 955.701 632.131 955.701H629.084V956.404H632.131C633.865 956.404 635.349 957.021 636.584 958.256C637.834 959.49 638.459 960.982 638.459 962.732V971.123H637.521V962.732C637.521 961.232 636.99 959.959 635.928 958.912C634.881 957.865 633.615 957.342 632.131 957.342H629.084V958.045H632.131C633.412 958.045 634.514 958.506 635.435 959.428C636.357 960.334 636.818 961.436 636.818 962.732ZM657.277 965.193C656.684 965.787 655.973 966.084 655.144 966.084C654.301 966.084 653.582 965.787 652.988 965.193C652.394 964.6 652.098 963.881 652.098 963.037V943.279H651.629V963.037C651.629 964.006 651.973 964.834 652.66 965.521C653.348 966.209 654.176 966.553 655.144 966.553C656.113 966.553 656.941 966.209 657.629 965.521C658.316 964.834 658.66 964.006 658.66 963.037V943.279H658.191V963.037C658.191 963.881 657.887 964.6 657.277 965.193ZM658.941 966.857C657.894 967.904 656.629 968.428 655.144 968.428C653.644 968.428 652.371 967.904 651.324 966.857C650.277 965.811 649.754 964.537 649.754 963.037V943.279H648.816V963.037C648.816 964.787 649.434 966.279 650.668 967.514C651.902 968.748 653.394 969.365 655.144 969.365C656.879 969.365 658.363 968.748 659.598 967.514C660.848 966.279 661.473 964.787 661.473 963.037V943.279H660.535V963.037C660.535 964.537 660.004 965.811 658.941 966.857ZM662.176 963.037V943.279H663.348V963.037C663.348 965.303 662.543 967.24 660.934 968.85C659.34 970.443 657.41 971.24 655.144 971.24C652.879 971.24 650.941 970.443 649.332 968.85C647.738 967.24 646.941 965.303 646.941 963.037V943.279H648.113V963.037C648.113 964.99 648.793 966.654 650.152 968.029C651.527 969.389 653.191 970.068 655.144 970.068C657.082 970.068 658.738 969.389 660.113 968.029C661.488 966.654 662.176 964.99 662.176 963.037ZM650.457 963.037V943.279H651.16V963.037C651.16 964.146 651.543 965.092 652.309 965.873C653.09 966.639 654.035 967.021 655.144 967.021C656.238 967.021 657.176 966.639 657.957 965.873C658.738 965.092 659.129 964.146 659.129 963.037V943.279H659.832V963.037C659.832 964.334 659.371 965.443 658.449 966.365C657.527 967.271 656.426 967.725 655.144 967.725C653.848 967.725 652.738 967.271 651.816 966.365C650.91 965.443 650.457 964.334 650.457 963.037ZM672.018 956.451C673.377 957.826 675.033 958.514 676.986 958.514C678.143 958.514 679.135 958.928 679.963 959.756C680.791 960.584 681.205 961.576 681.205 962.732C681.205 963.889 680.791 964.881 679.963 965.709C679.135 966.537 678.143 966.951 676.986 966.951C675.83 966.951 674.838 966.537 674.01 965.709C673.182 964.881 672.768 963.889 672.768 962.732H673.939C673.939 963.576 674.236 964.295 674.83 964.889C675.424 965.482 676.143 965.779 676.986 965.779C677.814 965.779 678.525 965.482 679.119 964.889C679.729 964.295 680.033 963.576 680.033 962.732C680.033 961.889 679.729 961.17 679.119 960.576C678.525 959.982 677.814 959.686 676.986 959.686C674.721 959.686 672.783 958.889 671.174 957.295C669.58 955.686 668.783 953.748 668.783 951.482C668.783 949.217 669.58 947.279 671.174 945.67C672.783 944.076 674.721 943.279 676.986 943.279C679.252 943.279 681.189 944.076 682.799 945.67C684.393 947.279 685.189 949.217 685.189 951.482H684.018C684.018 949.529 683.33 947.873 681.955 946.514C680.58 945.139 678.924 944.451 676.986 944.451C675.033 944.451 673.377 945.139 672.018 946.514C670.643 947.873 669.955 949.529 669.955 951.482C669.955 953.42 670.643 955.076 672.018 956.451ZM674.174 954.295C674.939 955.076 675.877 955.467 676.986 955.467C678.971 955.467 680.674 956.178 682.096 957.6C683.533 959.006 684.252 960.717 684.252 962.732C684.252 964.748 683.533 966.459 682.096 967.865C680.674 969.287 678.971 969.998 676.986 969.998C674.971 969.998 673.26 969.287 671.854 967.865C670.432 966.459 669.721 964.748 669.721 962.732H670.424C670.424 964.545 671.064 966.084 672.346 967.35C673.611 968.646 675.158 969.295 676.986 969.295C678.799 969.295 680.338 968.646 681.604 967.35C682.9 966.084 683.549 964.545 683.549 962.732C683.549 960.904 682.9 959.357 681.604 958.092C680.338 956.811 678.799 956.17 676.986 956.17C675.689 956.17 674.588 955.709 673.682 954.787C672.76 953.881 672.299 952.779 672.299 951.482C672.299 950.186 672.76 949.084 673.682 948.178C674.588 947.256 675.689 946.795 676.986 946.795C678.268 946.795 679.369 947.256 680.291 948.178C681.213 949.084 681.674 950.186 681.674 951.482H680.971C680.971 950.373 680.58 949.436 679.799 948.67C679.018 947.889 678.08 947.498 676.986 947.498C675.877 947.498 674.939 947.889 674.174 948.67C673.393 949.436 673.002 950.373 673.002 951.482C673.002 952.592 673.393 953.529 674.174 954.295ZM676.986 954.998C679.111 954.998 680.932 955.756 682.447 957.271C683.963 958.756 684.721 960.576 684.721 962.732C684.721 964.857 683.963 966.678 682.447 968.193C680.932 969.709 679.111 970.467 676.986 970.467C674.846 970.467 673.025 969.709 671.525 968.193C670.01 966.678 669.252 964.857 669.252 962.732H668.783C668.783 964.998 669.58 966.936 671.174 968.545C672.783 970.139 674.721 970.936 676.986 970.936C679.252 970.936 681.189 970.139 682.799 968.545C684.393 966.936 685.189 964.998 685.189 962.732C685.189 960.467 684.393 958.529 682.799 956.92C681.189 955.326 679.252 954.529 676.986 954.529C676.143 954.529 675.424 954.232 674.83 953.639C674.236 953.045 673.939 952.326 673.939 951.482C673.939 950.639 674.236 949.92 674.83 949.326C675.424 948.732 676.143 948.436 676.986 948.436C677.814 948.436 678.525 948.732 679.119 949.326C679.729 949.92 680.033 950.639 680.033 951.482H680.502C680.502 950.514 680.158 949.686 679.471 948.998C678.783 948.311 677.955 947.967 676.986 947.967C676.018 947.967 675.189 948.311 674.502 948.998C673.814 949.686 673.471 950.514 673.471 951.482C673.471 952.451 673.814 953.279 674.502 953.967C675.189 954.654 676.018 954.998 676.986 954.998ZM676.986 957.811C678.33 957.811 679.486 958.295 680.455 959.264C681.424 960.201 681.908 961.357 681.908 962.732C681.908 964.107 681.424 965.264 680.455 966.201C679.486 967.17 678.33 967.654 676.986 967.654C675.611 967.654 674.455 967.17 673.518 966.201C672.549 965.264 672.064 964.107 672.064 962.732H671.127C671.127 964.357 671.705 965.732 672.861 966.857C673.986 968.014 675.361 968.592 676.986 968.592C678.596 968.592 679.971 968.014 681.111 966.857C682.268 965.732 682.846 964.357 682.846 962.732C682.846 961.107 682.268 959.732 681.111 958.607C679.971 957.451 678.596 956.873 676.986 956.873C675.486 956.873 674.213 956.342 673.166 955.279C672.119 954.232 671.596 952.967 671.596 951.482C671.596 949.982 672.119 948.709 673.166 947.662C674.213 946.615 675.486 946.092 676.986 946.092C678.471 946.092 679.736 946.615 680.783 947.662C681.846 948.709 682.377 949.982 682.377 951.482H683.314C683.314 949.732 682.689 948.24 681.439 947.006C680.205 945.771 678.721 945.154 676.986 945.154C675.236 945.154 673.744 945.771 672.51 947.006C671.275 948.24 670.658 949.732 670.658 951.482C670.658 953.232 671.275 954.725 672.51 955.959C673.744 957.193 675.236 957.811 676.986 957.811Z" fill="black"/>
<g clip-path="url(#clip0_76_876)">
<path d="M622.705 373.123H696.705V390.123H622.705V373.123Z" fill="#E4E4E4"/>
<path d="M696.705 372.123H665.034C657.08 377.968 656.222 383.993 657.187 390.136H696.705V372.123Z" fill="#C5C5C5"/>
<path d="M647.705 425.123C667.032 413.326 658.975 401.529 657.187 390.136M657.187 390.136C656.222 383.993 657.08 377.968 665.034 372.123H696.705V390.136H657.187Z" stroke="#C5C5C5"/>
<path d="M622.705 390.123H696.705V407.123H622.705V390.123Z" fill="#2254FA"/>
<path d="M660.371 407.148C660.45 401.412 658.064 395.726 657.187 390.136H696.705V407.148H660.371Z" fill="#1A3691"/>
<path d="M622.705 407.123H696.705V424.123H622.705V407.123Z" fill="#B5171E"/>
<path d="M696.705 407.123H660.372C660.301 412.757 657.859 418.439 649.279 424.123H696.705V407.123Z" fill="#970000"/>
</g>
<path d="M634.705 433.123H649.514C651.982 433.123 653.768 433.686 654.873 434.813C656.001 435.916 656.565 437.701 656.565 440.165V443.334C656.565 445.283 656.236 446.797 655.578 447.877C654.944 448.956 653.921 449.672 652.511 450.024L656.918 457.771H650.043L645.988 450.377H641.052V457.771H634.705V433.123ZM650.219 440.165C650.219 438.757 649.514 438.053 648.103 438.053H641.052V445.447H648.103C649.514 445.447 650.219 444.743 650.219 443.334V440.165Z" fill="black"/>
<path d="M677.359 433.123H683.705V451.081C683.705 453.546 683.141 455.341 682.013 456.468C680.908 457.571 679.121 458.123 676.653 458.123H668.544C666.076 458.123 664.278 457.571 663.149 456.468C662.044 455.341 661.492 453.546 661.492 451.081V433.123H667.839V451.081C667.839 452.489 668.544 453.193 669.954 453.193H675.243C676.653 453.193 677.359 452.489 677.359 451.081V433.123Z" fill="black"/>
<defs>
<clipPath id="clip0_76_876">
<rect width="74" height="51" fill="white" transform="translate(622.705 373.123)"/>
</clipPath>
</defs>
</svg>
