<svg width="375" height="339" viewBox="0 0 375 339" fill="none" xmlns="http://www.w3.org/2000/svg">
<path d="M79.935 269.774C91.7548 270.389 103.433 270.998 115.114 271.606C115.137 271.706 115.16 271.806 115.182 271.906C114.607 272.178 114.035 272.454 113.454 272.722C102.159 277.945 90.8693 283.184 79.5555 288.365C78.3423 288.922 77.9463 289.486 77.854 290.537C77.1436 298.606 76.3587 306.681 75.5941 314.756C75.5466 315.244 75.4609 315.738 75.3581 316.489C71.4319 313.028 67.71 309.738 63.9826 306.455C61.6547 304.402 59.274 302.393 57.0278 300.28C56.1876 299.488 55.4968 299.368 54.1025 300.026C43.0101 305.252 31.883 310.395 20.7649 315.566C20.319 315.773 19.8789 315.984 18.9761 316.411C19.47 315.699 19.7034 315.31 19.9955 314.95C27.0917 306.271 34.1627 297.581 41.3223 288.932C42.4136 287.615 42.6031 286.883 41.4063 285.838C34.5337 279.846 27.8 273.74 21.0188 267.673C20.7684 267.446 20.5368 267.207 20.0853 266.77C20.8957 266.781 21.4222 266.77 21.9387 266.798C33.3477 267.427 44.7596 268.044 56.1553 268.714C57.3043 268.783 57.964 268.5 58.697 267.593C66.1847 258.349 73.7208 249.129 81.242 239.903C81.6831 239.365 82.1242 238.828 82.9028 238.286C81.9197 248.72 80.9344 259.158 79.935 269.774Z" fill="#A50000"/>
<path d="M120.083 242.853C137.279 233.261 169.926 216.39 177.862 212.3C170.546 223.309 142.366 265.717 127.398 288.242C127.491 288.28 127.579 288.318 127.655 288.353C127.89 288.116 128.133 287.885 128.365 287.64C153.807 260.75 179.304 233.916 204.661 206.948C225.068 185.244 245.864 163.985 268.523 144.535C302.797 115.117 336.663 85.2297 370.699 55.5394C371.938 54.4593 373.17 53.3737 374.403 52.2882C369.349 55.2272 364.528 58.4496 359.695 61.6491C325.971 83.9748 292.243 106.3 258.509 128.615C244.711 137.743 230.701 146.57 215.696 153.574C198.943 161.393 181.947 168.699 165.011 176.124C129.333 191.765 93.6228 207.334 57.9276 222.935C56.817 223.42 55.7212 223.936 54.6164 224.435C54.6649 224.551 54.7166 224.672 54.765 224.789C90.3059 215.615 125.848 206.437 161.388 197.263C154.829 204.612 119.99 242.753 120.083 242.853Z" fill="#4A5AC5"/>
</svg>
