<svg width="1269" height="1275" viewBox="0 0 1269 1275" fill="none" xmlns="http://www.w3.org/2000/svg">
<path d="M251.917 170.487L181.963 232.338L335.409 158.3L251.917 170.487Z" stroke="white" stroke-opacity="0.2" stroke-width="2" stroke-miterlimit="10" stroke-linejoin="round"/>
<path d="M251.914 170.486L335.406 158.281C373.185 121.827 391.7 103.653 427.112 68.7178L251.914 170.486Z" stroke="white" stroke-opacity="0.2" stroke-width="2" stroke-miterlimit="10" stroke-linejoin="round"/>
<path d="M335.409 158.3C302.955 206.305 286.267 230.855 253.587 279.902C225.936 260.827 198.077 239.668 181.963 232.339L335.409 158.3Z" stroke="white" stroke-opacity="0.2" stroke-width="2" stroke-miterlimit="10" stroke-linejoin="round"/>
<path d="M335.406 158.3C373.184 121.846 391.699 103.672 427.111 68.7363C362.36 150.705 325.696 194.842 253.584 279.902C286.264 230.855 302.952 206.305 335.406 158.3Z" stroke="white" stroke-opacity="0.2" stroke-width="2" stroke-miterlimit="10" stroke-linejoin="round"/>
<path d="M253.584 279.901C328.636 221.175 366.624 190.797 438.526 135.621C432.158 106.903 429.808 93.4444 427.111 68.7178C362.36 150.687 325.696 194.824 253.584 279.901Z" stroke="white" stroke-opacity="0.2" stroke-width="2" stroke-miterlimit="10" stroke-linejoin="round"/>
<path d="M438.531 135.622C495.781 91.2909 523.658 69.973 575.532 33.4658C513.566 40.1244 483.565 47.507 427.115 68.719C429.812 93.4633 432.162 106.922 438.531 135.622Z" stroke="white" stroke-opacity="0.2" stroke-width="2" stroke-miterlimit="10" stroke-linejoin="round"/>
<path d="M438.526 135.622C442.355 168.261 445.174 185.658 452.308 222.112C368.99 239.35 328.723 251.449 253.584 279.902C328.636 221.176 366.624 190.798 438.526 135.622Z" stroke="white" stroke-opacity="0.2" stroke-width="2" stroke-miterlimit="10" stroke-linejoin="round"/>
<path d="M452.309 222.113C505.819 142.44 531.695 103.407 575.529 33.4663C523.655 69.9735 495.795 91.2914 438.527 135.623C442.338 168.28 445.175 185.659 452.309 222.113Z" stroke="white" stroke-opacity="0.2" stroke-width="2" stroke-miterlimit="10" stroke-linejoin="round"/>
<path d="M452.311 222.112C553.361 170.504 606.557 146.678 698.175 116.988C645.101 78.5385 619.086 61.1062 575.53 33.4653C531.696 103.406 505.82 142.439 452.311 222.112Z" stroke="white" stroke-opacity="0.2" stroke-width="2" stroke-miterlimit="10" stroke-linejoin="round"/>
<path d="M698.173 116.987C716.949 83.2003 725.354 67.2339 739.606 37.8798C675.69 27.477 640.504 26.4879 575.527 33.482C619.083 61.1052 645.098 78.5375 698.173 116.987Z" stroke="white" stroke-opacity="0.2" stroke-width="2" stroke-miterlimit="10" stroke-linejoin="round"/>
<path d="M137.014 391.72C183.18 348.342 206.898 325.576 253.586 279.902C225.935 260.828 198.075 239.669 181.962 232.339L137.014 391.72Z" stroke="white" stroke-opacity="0.2" stroke-width="2" stroke-miterlimit="10" stroke-linejoin="round"/>
<path d="M181.96 232.339L134.123 300.355L137.012 391.72L181.96 232.339Z" stroke="white" stroke-opacity="0.2" stroke-width="2" stroke-miterlimit="10" stroke-linejoin="round"/>
<path d="M253.584 279.902C235.869 347.247 229.779 383.877 223.653 460.919C183.735 427.714 165.95 413.443 137.012 391.719C183.16 348.342 206.896 325.576 253.584 279.902Z" stroke="white" stroke-opacity="0.2" stroke-width="2" stroke-miterlimit="10" stroke-linejoin="round"/>
<path d="M253.585 279.902C328.724 251.449 368.991 239.35 452.309 222.112C363.457 316.392 314.107 367.752 223.654 460.919C229.78 383.878 235.853 347.247 253.585 279.902Z" stroke="white" stroke-opacity="0.2" stroke-width="2" stroke-miterlimit="10" stroke-linejoin="round"/>
<path d="M223.656 460.92C148.708 467.366 113.418 472.011 49.1543 484.039C83.0523 448.627 100.906 429.976 136.997 391.72C165.953 413.444 183.737 427.715 223.656 460.92Z" stroke="white" stroke-opacity="0.2" stroke-width="2" stroke-miterlimit="10" stroke-linejoin="round"/>
<path d="M452.311 222.113C555.658 206.8 614.057 204.416 722.224 212.01C712.271 172.907 707.398 153.85 698.175 117.007C606.557 146.679 553.343 170.505 452.311 222.113Z" stroke="white" stroke-opacity="0.2" stroke-width="2" stroke-miterlimit="10" stroke-linejoin="round"/>
<path d="M223.654 460.919C304.571 398.466 347.309 364.52 429.478 300.531C438.475 268.634 443.069 252.932 452.292 222.112C363.44 316.392 314.107 367.752 223.654 460.919Z" stroke="white" stroke-opacity="0.2" stroke-width="2" stroke-miterlimit="10" stroke-linejoin="round"/>
<path d="M429.496 300.53C546.608 255.563 610.471 235.04 722.24 212.009C614.073 204.414 555.674 206.799 452.327 222.112C443.087 252.914 438.493 268.633 429.496 300.53Z" stroke="white" stroke-opacity="0.2" stroke-width="2" stroke-miterlimit="10" stroke-linejoin="round"/>
<path d="M698.176 116.989C767.938 86.5042 798.93 75.4301 849.22 66.4402C807.022 51.092 784.974 45.246 739.609 37.8633C725.357 67.235 716.952 83.2014 698.176 116.989Z" stroke="white" stroke-opacity="0.2" stroke-width="2" stroke-miterlimit="10" stroke-linejoin="round"/>
<path d="M855.363 142.598C854.076 110.559 852.857 95.2818 849.203 66.4399C891.106 100.315 912.823 118.384 956.709 154.961L855.363 142.598Z" stroke="white" stroke-opacity="0.2" stroke-width="2" stroke-miterlimit="10" stroke-linejoin="round"/>
<path d="M855.363 142.598C794.98 126.879 763.257 121.51 698.176 116.988C767.938 86.5039 798.93 75.4298 849.22 66.4399C852.875 95.2818 854.075 110.577 855.363 142.598Z" stroke="white" stroke-opacity="0.2" stroke-width="2" stroke-miterlimit="10" stroke-linejoin="round"/>
<path d="M855.359 142.597C809.28 163.085 782.082 177.691 722.221 211.991C712.267 172.887 707.395 153.83 698.172 116.987C763.253 121.526 794.976 126.878 855.359 142.597Z" stroke="white" stroke-opacity="0.2" stroke-width="2" stroke-miterlimit="10" stroke-linejoin="round"/>
<path d="M1007.16 343.203C972.023 318.705 954.325 306.342 919.157 282.004C893.716 224.797 880.665 196.679 855.363 142.599C913.414 221.035 945.364 262.541 1007.16 343.203Z" stroke="white" stroke-opacity="0.2" stroke-width="2" stroke-miterlimit="10" stroke-linejoin="round"/>
<path d="M919.159 282.004C841.583 250.142 801.682 235.253 722.227 211.992C782.088 177.693 809.303 163.069 855.365 142.599C880.667 196.679 893.735 224.797 919.159 282.004Z" stroke="white" stroke-opacity="0.2" stroke-width="2" stroke-miterlimit="10" stroke-linejoin="round"/>
<path d="M429.496 300.532C469.989 336.05 492.733 356.273 540.917 399.103C618.267 318.653 658.116 278.879 722.24 212.011C610.471 235.024 546.608 255.565 429.496 300.532Z" stroke="white" stroke-opacity="0.2" stroke-width="2" stroke-miterlimit="10" stroke-linejoin="round"/>
<path d="M722.225 212.011C764.075 292.143 787.463 335.044 832.88 421.357C872.712 360.141 890.705 331.599 919.157 282.023C841.581 250.143 801.68 235.254 722.225 212.011Z" stroke="white" stroke-opacity="0.2" stroke-width="2" stroke-miterlimit="10" stroke-linejoin="round"/>
<path d="M722.225 212.01C691.512 323.933 669.638 387.322 626.413 518.108C590.705 468.973 573.269 444.847 540.902 399.12C618.252 318.652 658.101 278.878 722.225 212.01Z" stroke="white" stroke-opacity="0.2" stroke-width="2" stroke-miterlimit="10" stroke-linejoin="round"/>
<path d="M626.412 518.091C712.758 476.038 755.426 455.515 832.88 421.339C787.462 335.025 764.075 292.125 722.224 211.993C691.511 323.934 669.637 387.322 626.412 518.091Z" stroke="white" stroke-opacity="0.2" stroke-width="2" stroke-miterlimit="10" stroke-linejoin="round"/>
<path d="M832.881 421.338C909.987 382.87 945.781 366.162 1007.16 343.201C972.023 318.704 954.326 306.341 919.157 282.003C890.706 331.58 872.713 360.139 832.881 421.338Z" stroke="white" stroke-opacity="0.2" stroke-width="2" stroke-miterlimit="10" stroke-linejoin="round"/>
<path d="M429.496 300.531C347.309 364.52 304.589 398.466 223.672 460.918C342.68 432.041 407.675 418.141 540.918 399.102C492.716 356.254 469.989 336.049 429.496 300.531Z" stroke="white" stroke-opacity="0.2" stroke-width="2" stroke-miterlimit="10" stroke-linejoin="round"/>
<path d="M49.154 484.039C113.418 472.011 148.708 467.366 223.656 460.919C139.502 530.331 97.9824 563.871 27.002 619.276L49.154 484.039Z" stroke="white" stroke-opacity="0.2" stroke-width="2" stroke-miterlimit="10" stroke-linejoin="round"/>
<path d="M223.656 460.919C286.771 501.488 323.836 527.539 402.073 583.881C456.487 509.983 485.548 471.904 540.902 399.102C407.676 418.124 342.665 432.024 223.656 460.919Z" stroke="white" stroke-opacity="0.2" stroke-width="2" stroke-miterlimit="10" stroke-linejoin="round"/>
<path d="M402.072 583.881C489.253 557.406 534.741 543.364 626.412 518.09C590.704 468.955 573.268 444.829 540.901 399.102C485.547 471.904 456.487 509.983 402.072 583.881Z" stroke="white" stroke-opacity="0.2" stroke-width="2" stroke-miterlimit="10" stroke-linejoin="round"/>
<path d="M626.41 518.09C757.495 576.25 825.239 610.267 946.266 666.344C905.164 569.345 880.489 518.567 832.861 421.355C755.424 455.514 712.756 476.054 626.41 518.09Z" stroke="white" stroke-opacity="0.2" stroke-width="2" stroke-miterlimit="10" stroke-linejoin="round"/>
<path d="M946.284 666.344C988.117 622.861 1008.29 601.843 1045.18 563.976C963.511 509.489 919.573 479.234 832.879 421.356C880.507 518.567 905.182 569.345 946.284 666.344Z" stroke="white" stroke-opacity="0.2" stroke-width="2" stroke-miterlimit="10" stroke-linejoin="round"/>
<path d="M223.654 460.919C242.57 548.434 258.562 600.007 296.183 703.117C336.242 657.85 357.924 632.964 402.071 583.899C323.834 527.54 286.769 501.489 223.654 460.919Z" stroke="white" stroke-opacity="0.2" stroke-width="2" stroke-miterlimit="10" stroke-linejoin="round"/>
<path d="M27.002 619.259C80.6332 616.839 109.276 615.744 169.276 613.854C187.617 552.885 198.963 522.047 223.656 460.902C139.502 530.313 97.9824 563.853 27.002 619.259Z" stroke="white" stroke-opacity="0.2" stroke-width="2" stroke-miterlimit="10" stroke-linejoin="round"/>
<path d="M169.277 613.853C216.975 646.316 242.833 665.02 296.186 703.099C258.564 600.007 242.572 548.434 223.657 460.901C198.982 522.047 187.618 552.902 169.277 613.853Z" stroke="white" stroke-opacity="0.2" stroke-width="2" stroke-miterlimit="10" stroke-linejoin="round"/>
<path d="M296.186 703.098C418.657 636.283 489.115 592.605 626.413 518.089C534.742 543.346 489.254 557.387 402.073 583.88C357.943 632.945 336.261 657.83 296.186 703.098Z" stroke="white" stroke-opacity="0.2" stroke-width="2" stroke-miterlimit="10" stroke-linejoin="round"/>
<path d="M626.412 518.09C638.28 575.791 644.527 605.552 656.656 665.072C777.23 665.867 836.047 666.15 946.268 666.344C825.241 610.267 757.497 576.268 626.412 518.09Z" stroke="white" stroke-opacity="0.2" stroke-width="2" stroke-miterlimit="10" stroke-linejoin="round"/>
<path d="M626.413 518.089C489.115 592.605 418.657 636.283 296.186 703.098C430.925 690.929 505.838 682.027 656.656 665.072C644.528 605.551 638.28 575.791 626.413 518.089Z" stroke="white" stroke-opacity="0.2" stroke-width="2" stroke-miterlimit="10" stroke-linejoin="round"/>
<path d="M946.282 666.343C930.516 729.697 921.328 761.417 902.082 823.87C965.406 716.751 997.25 659.667 1045.19 563.975C1008.28 601.825 988.115 622.86 946.282 666.343Z" stroke="white" stroke-opacity="0.2" stroke-width="2" stroke-miterlimit="10" stroke-linejoin="round"/>
<path d="M902.067 823.87C811.719 767.706 760.349 733.194 656.654 665.072C777.229 665.867 836.046 666.15 946.266 666.344C930.518 729.697 921.33 761.418 902.067 823.87Z" stroke="white" stroke-opacity="0.2" stroke-width="2" stroke-miterlimit="10" stroke-linejoin="round"/>
<path d="M656.672 665.073C652.374 713.785 650.181 737.876 645.9 785.209C500.581 754.442 428.226 735.35 296.201 703.117C430.941 690.93 505.836 682.029 656.672 665.073Z" stroke="white" stroke-opacity="0.2" stroke-width="2" stroke-miterlimit="10" stroke-linejoin="round"/>
<path d="M645.883 785.19C687.751 811.931 708.302 825.071 747.873 849.957C713.644 778.938 694.589 741.318 656.654 665.054C652.374 713.783 650.181 737.874 645.883 785.19Z" stroke="white" stroke-opacity="0.2" stroke-width="2" stroke-miterlimit="10" stroke-linejoin="round"/>
<path d="M902.067 823.87C811.719 767.706 760.349 733.194 656.654 665.072C694.589 741.336 713.644 778.938 747.873 849.975C810.814 840.49 841.806 835.103 902.067 823.87Z" stroke="white" stroke-opacity="0.2" stroke-width="2" stroke-miterlimit="10" stroke-linejoin="round"/>
<path d="M169.277 613.853C151.753 675.175 144.897 706.083 136.318 762.072C195.501 742.803 227.989 730.457 296.203 703.099C242.833 665.02 216.991 646.316 169.277 613.853Z" stroke="white" stroke-opacity="0.2" stroke-width="2" stroke-miterlimit="10" stroke-linejoin="round"/>
<path d="M136.318 762.072C87.0717 700.432 63.9974 670.141 27.002 619.275C80.6332 616.855 109.276 615.76 169.276 613.871C151.753 675.175 144.897 706.083 136.318 762.072Z" stroke="white" stroke-opacity="0.2" stroke-width="2" stroke-miterlimit="10" stroke-linejoin="round"/>
<path d="M747.889 849.957C798.736 905.486 822.784 931.926 864.53 978.483C880.522 918.115 888.266 886.994 902.065 823.853C841.804 835.104 810.812 840.491 747.889 849.957Z" stroke="white" stroke-opacity="0.2" stroke-width="2" stroke-miterlimit="10" stroke-linejoin="round"/>
<path d="M864.532 978.501C815.008 1001.3 790.02 1012.41 740.391 1032.76C744.271 962.517 745.82 925.71 747.891 849.976C798.738 905.487 822.786 931.927 864.532 978.501Z" stroke="white" stroke-opacity="0.2" stroke-width="2" stroke-miterlimit="10" stroke-linejoin="round"/>
<path d="M740.389 1032.76C681.607 1007.61 649.014 992.701 584.838 961.034C647.292 919.599 681.642 896.462 747.872 849.976C745.819 925.71 744.287 962.517 740.389 1032.76Z" stroke="white" stroke-opacity="0.2" stroke-width="2" stroke-miterlimit="10" stroke-linejoin="round"/>
<path d="M296.186 703.098C322.705 788.953 338.784 832.26 371.464 916.472C469.991 874.383 527.468 845.082 645.885 785.208C500.583 754.424 428.228 735.349 296.186 703.098Z" stroke="white" stroke-opacity="0.2" stroke-width="2" stroke-miterlimit="10" stroke-linejoin="round"/>
<path d="M371.462 916.472C274.518 852.501 225.499 819.314 136.299 762.072C195.481 742.803 227.97 730.457 296.183 703.099C322.72 788.953 338.799 832.26 371.462 916.472Z" stroke="white" stroke-opacity="0.2" stroke-width="2" stroke-miterlimit="10" stroke-linejoin="round"/>
<path d="M645.882 785.191C620.111 857.87 607.373 893.441 584.838 961.015C647.292 919.58 681.642 896.443 747.872 849.957C708.318 825.089 687.767 811.931 645.882 785.191Z" stroke="white" stroke-opacity="0.2" stroke-width="2" stroke-miterlimit="10" stroke-linejoin="round"/>
<path d="M584.857 961.014C497.589 946.69 454.451 937.188 371.48 916.471C470.007 874.382 527.484 845.081 645.901 785.208C620.112 857.869 607.374 893.44 584.857 961.014Z" stroke="white" stroke-opacity="0.2" stroke-width="2" stroke-miterlimit="10" stroke-linejoin="round"/>
<path d="M136.318 762.07C167.31 838.758 186.522 877.897 226.701 954.673C278.871 945.048 308.279 936.923 371.481 916.471C274.521 852.499 225.501 819.313 136.318 762.07Z" stroke="white" stroke-opacity="0.2" stroke-width="2" stroke-miterlimit="10" stroke-linejoin="round"/>
<path d="M136.319 762.072C100.28 821.433 85.9763 847.096 69.793 886.323C129.254 914.317 160.959 928.376 226.702 954.675C186.522 877.899 167.311 838.76 136.319 762.072Z" stroke="white" stroke-opacity="0.2" stroke-width="2" stroke-miterlimit="10" stroke-linejoin="round"/>
<path d="M49.2422 739.43C82.914 748.208 100.385 752.782 136.319 762.055C100.281 821.416 85.9766 847.079 69.7933 886.306L49.2422 739.43Z" stroke="white" stroke-opacity="0.2" stroke-width="2" stroke-miterlimit="10" stroke-linejoin="round"/>
<path d="M49.239 739.429C82.9108 748.207 100.382 752.781 136.316 762.054C87.0698 700.414 63.9955 670.124 27 619.257L49.239 739.429Z" stroke="white" stroke-opacity="0.2" stroke-width="2" stroke-miterlimit="10" stroke-linejoin="round"/>
<path d="M902.07 823.87C956.067 863.415 981.299 881.43 1025.46 910.908C962.488 938.655 929.999 952.643 864.535 978.5C880.544 918.114 888.271 887.011 902.07 823.87Z" stroke="white" stroke-opacity="0.2" stroke-width="2" stroke-miterlimit="10" stroke-linejoin="round"/>
<path d="M864.535 978.5C924.657 1000.47 952.447 1009.21 1001.26 1019.78C1012.53 977.705 1017.42 955.84 1025.46 910.908C962.505 938.655 930.017 952.626 864.535 978.5Z" stroke="white" stroke-opacity="0.2" stroke-width="2" stroke-miterlimit="10" stroke-linejoin="round"/>
<path d="M864.532 978.501C815.008 1001.3 790.02 1012.41 740.391 1032.76C853.204 1038.3 906.522 1035.85 1001.26 1019.78C952.445 1009.22 924.654 1000.46 864.532 978.501Z" stroke="white" stroke-opacity="0.2" stroke-width="2" stroke-miterlimit="10" stroke-linejoin="round"/>
<path d="M902.066 823.87C946.771 809.74 968.818 802.552 1011.82 788.458C1031.1 699.177 1038.39 651.243 1045.18 563.975C997.235 659.65 965.408 716.733 902.066 823.87Z" stroke="white" stroke-opacity="0.2" stroke-width="2" stroke-miterlimit="10" stroke-linejoin="round"/>
<path d="M1025.48 910.908C981.311 881.43 956.061 863.415 902.082 823.87C946.786 809.741 968.834 802.552 1011.83 788.458L1025.48 910.908Z" stroke="white" stroke-opacity="0.2" stroke-width="2" stroke-miterlimit="10" stroke-linejoin="round"/>
<path d="M226.682 954.657C291.345 981.132 325.069 993.937 393.77 1016.51C384.286 977.317 379.779 957.253 371.444 916.454C308.26 936.924 278.851 945.049 226.682 954.657Z" stroke="white" stroke-opacity="0.2" stroke-width="2" stroke-miterlimit="10" stroke-linejoin="round"/>
<path d="M226.684 954.659C194.492 966.951 179.909 971.544 154.677 976.807C120.205 939.628 102.995 921.384 69.793 886.307C129.254 914.319 160.959 928.378 226.684 954.659Z" stroke="white" stroke-opacity="0.2" stroke-width="2" stroke-miterlimit="10" stroke-linejoin="round"/>
<path d="M393.789 1016.53C325.088 993.938 291.347 981.133 226.701 954.675C194.508 966.968 179.925 971.56 154.693 976.823L393.789 1016.53Z" stroke="white" stroke-opacity="0.2" stroke-width="2" stroke-miterlimit="10" stroke-linejoin="round"/>
<path d="M393.789 1016.53C463.899 1000.79 502.757 988.921 584.857 961.015C497.589 946.691 454.451 937.189 371.48 916.472C379.798 957.271 384.305 977.335 393.789 1016.53Z" stroke="white" stroke-opacity="0.2" stroke-width="2" stroke-miterlimit="10" stroke-linejoin="round"/>
<path d="M1045.17 563.958C1036.26 472.134 1028.17 427.396 1007.15 343.202C945.778 366.163 909.983 382.871 832.877 421.338C919.571 479.216 963.492 509.489 1045.17 563.958Z" stroke="white" stroke-opacity="0.2" stroke-width="2" stroke-miterlimit="10" stroke-linejoin="round"/>
<path d="M1007.16 343.203C1007.1 309.433 1006.34 293.237 1003.19 262.558C943.084 213.829 912.979 189.032 855.363 142.599C913.414 221.035 945.364 262.541 1007.16 343.203Z" stroke="white" stroke-opacity="0.2" stroke-width="2" stroke-miterlimit="10" stroke-linejoin="round"/>
<path d="M956.709 154.962C976.408 196.344 985.822 217.962 1003.19 262.558C943.084 213.829 912.979 189.032 855.363 142.599L956.709 154.962Z" stroke="white" stroke-opacity="0.2" stroke-width="2" stroke-miterlimit="10" stroke-linejoin="round"/>
<path d="M1020.15 178.435L1003.21 262.558C985.839 217.98 976.425 196.344 956.727 154.962L1020.15 178.435Z" stroke="white" stroke-opacity="0.2" stroke-width="2" stroke-miterlimit="10" stroke-linejoin="round"/>
<path d="M1003.19 262.558C1050.85 311.093 1075.21 335.395 1122.68 381.899C1078.15 365.474 1054.94 357.614 1007.16 343.202C1007.1 309.432 1006.34 293.254 1003.19 262.558Z" stroke="white" stroke-opacity="0.2" stroke-width="2" stroke-miterlimit="10" stroke-linejoin="round"/>
<path d="M1003.19 262.559L1020.14 178.435C1061.92 224.321 1096.29 255.671 1138.55 300.514L1003.19 262.559Z" stroke="white" stroke-opacity="0.2" stroke-width="2" stroke-miterlimit="10" stroke-linejoin="round"/>
<path d="M1003.19 262.558C1050.85 311.093 1075.21 335.395 1122.68 381.899L1138.57 300.513L1003.19 262.558Z" stroke="white" stroke-opacity="0.2" stroke-width="2" stroke-miterlimit="10" stroke-linejoin="round"/>
<path d="M1007.16 343.202C1055.6 394.58 1080.07 420.155 1126.69 468.654C1127.19 432.271 1126.43 414.838 1122.67 381.899C1078.15 365.473 1054.94 357.631 1007.16 343.202Z" stroke="white" stroke-opacity="0.2" stroke-width="2" stroke-miterlimit="10" stroke-linejoin="round"/>
<path d="M1122.68 381.9C1162.06 405.161 1181.43 416.712 1218.95 438.983C1186.34 446.613 1167.63 452.777 1126.69 468.673C1127.21 432.289 1126.44 414.857 1122.68 381.9Z" stroke="white" stroke-opacity="0.2" stroke-width="2" stroke-miterlimit="10" stroke-linejoin="round"/>
<path d="M1138.57 300.531C1178.59 356.29 1195.16 373.086 1218.95 439.001C1181.41 416.729 1162.05 405.178 1122.68 381.917L1138.57 300.531Z" stroke="white" stroke-opacity="0.2" stroke-width="2" stroke-miterlimit="10" stroke-linejoin="round"/>
<path d="M1126.7 468.672C1098.34 502.212 1081.62 521.64 1045.18 563.975C1036.27 472.151 1028.18 427.414 1007.16 343.219C1055.6 394.58 1080.09 420.154 1126.7 468.672Z" stroke="white" stroke-opacity="0.2" stroke-width="2" stroke-miterlimit="10" stroke-linejoin="round"/>
<path d="M1126.7 468.673C1159.76 521.341 1175.51 547.304 1202.69 597.058C1142.99 584.571 1111.21 577.736 1045.18 563.977C1081.61 521.624 1098.34 502.213 1126.7 468.673Z" stroke="white" stroke-opacity="0.2" stroke-width="2" stroke-miterlimit="10" stroke-linejoin="round"/>
<path d="M1243.09 534.118C1198.49 509.574 1175.01 496.282 1126.91 468.854C1159.36 521.284 1174.81 547.129 1201.48 596.657L1243.09 534.118Z" stroke="white" stroke-opacity="0.2" stroke-width="2" stroke-miterlimit="10" stroke-linejoin="round"/>
<path d="M1243.09 532.757C1235.71 494.1 1230.49 475.276 1217.44 439.035C1185.44 446.544 1167.09 452.61 1126.91 468.254C1175.03 495.352 1198.49 508.51 1243.09 532.757Z" stroke="white" stroke-opacity="0.2" stroke-width="2" stroke-miterlimit="10" stroke-linejoin="round"/>
<path d="M1202.7 597.039C1137.6 661.681 1096.27 704.158 1011.82 788.458C1031.1 699.177 1038.39 651.243 1045.18 563.976C1111.22 577.717 1142.99 584.552 1202.7 597.039Z" stroke="white" stroke-opacity="0.2" stroke-width="2" stroke-miterlimit="10" stroke-linejoin="round"/>
<path d="M1243.05 784.749C1159.78 791.019 1112.66 791.478 1011.82 788.458C1096.27 704.158 1137.6 661.699 1202.7 597.039L1243.05 784.749Z" stroke="white" stroke-opacity="0.2" stroke-width="2" stroke-miterlimit="10" stroke-linejoin="round"/>
<path d="M1011.82 788.46C1112.66 791.48 1159.77 791.021 1243.05 784.751C1161.31 830.831 1116.44 857.659 1025.48 910.91L1011.82 788.46Z" stroke="white" stroke-opacity="0.2" stroke-width="2" stroke-miterlimit="10" stroke-linejoin="round"/>
<path d="M1243.05 784.75C1161.32 830.83 1116.44 857.658 1025.48 910.909C1078.94 947.557 1101.84 961.881 1135.23 977.971L1243.05 784.75Z" stroke="white" stroke-opacity="0.2" stroke-width="2" stroke-miterlimit="10" stroke-linejoin="round"/>
<path d="M1001.28 1019.78C1058.33 1006.28 1085.36 997.84 1135.23 977.97C1101.84 961.88 1078.94 947.539 1025.48 910.908C1017.42 955.84 1012.53 977.688 1001.28 1019.78Z" stroke="white" stroke-opacity="0.2" stroke-width="2" stroke-miterlimit="10" stroke-linejoin="round"/>
<path d="M393.789 1016.53C524.857 1037.37 601.232 1041.31 740.391 1032.76C681.609 1007.61 649.016 992.702 584.839 961.034C502.757 988.922 463.899 1000.79 393.789 1016.53Z" stroke="white" stroke-opacity="0.2" stroke-width="2" stroke-miterlimit="10" stroke-linejoin="round"/>
<path d="M393.791 1016.53C323.75 1058.3 293.941 1074.05 252.004 1087.33C213.268 1042.65 193.483 1020.29 154.678 976.823L393.791 1016.53Z" stroke="white" stroke-opacity="0.2" stroke-width="2" stroke-miterlimit="10" stroke-linejoin="round"/>
<path d="M252.004 1087.32C332.381 1119.18 379.121 1128.68 479.98 1134.05C446.674 1088.09 429.133 1064.29 393.791 1016.51C323.75 1058.3 293.924 1074.05 252.004 1087.32Z" stroke="white" stroke-opacity="0.2" stroke-width="2" stroke-miterlimit="10" stroke-linejoin="round"/>
<path d="M740.391 1032.76C629.439 1084.68 571.962 1107.7 479.978 1134.07C446.672 1088.11 429.131 1064.3 393.789 1016.53C524.857 1037.35 601.232 1041.31 740.391 1032.76Z" stroke="white" stroke-opacity="0.2" stroke-width="2" stroke-miterlimit="10" stroke-linejoin="round"/>
<path d="M740.393 1032.76C731.64 1083.55 727.22 1108.26 718.659 1155.72C624.412 1158.17 572.904 1153.25 479.98 1134.07C571.982 1107.68 629.441 1084.68 740.393 1032.76Z" stroke="white" stroke-opacity="0.2" stroke-width="2" stroke-miterlimit="10" stroke-linejoin="round"/>
<path d="M718.656 1155.72C831.174 1111.87 889.678 1081.08 1001.27 1019.78C906.54 1035.85 853.222 1038.29 740.408 1032.76C731.638 1083.55 727.218 1108.25 718.656 1155.72Z" stroke="white" stroke-opacity="0.2" stroke-width="2" stroke-miterlimit="10" stroke-linejoin="round"/>
<path d="M1007.52 1126.4C1008.91 1124.07 1135.23 977.97 1135.23 977.97C1085.36 997.84 1058.33 1006.28 1001.28 1019.78L1007.52 1126.4Z" stroke="white" stroke-opacity="0.2" stroke-width="2" stroke-miterlimit="10" stroke-linejoin="round"/>
<path d="M1001.27 1019.78C923.733 1100.17 884.597 1142.07 815.061 1218.24C895.629 1190.53 934.835 1171.12 1007.54 1126.38L1001.27 1019.78Z" stroke="white" stroke-opacity="0.2" stroke-width="2" stroke-miterlimit="10" stroke-linejoin="round"/>
<path d="M718.656 1155.72C761.864 1185.25 781.458 1198.16 815.043 1218.24C884.579 1142.05 923.715 1100.17 1001.26 1019.78C889.66 1081.08 831.174 1111.87 718.656 1155.72Z" stroke="white" stroke-opacity="0.2" stroke-width="2" stroke-miterlimit="10" stroke-linejoin="round"/>
<path d="M252.004 1087.32C356.656 1159.66 411.662 1195.34 516.836 1246.11C502.48 1203 494.998 1180.48 479.98 1134.07C379.104 1128.68 332.381 1119.18 252.004 1087.32Z" stroke="white" stroke-opacity="0.2" stroke-width="2" stroke-miterlimit="10" stroke-linejoin="round"/>
<path d="M154.676 976.806C193.464 1020.27 213.266 1042.63 252.002 1087.32L169.293 1036.98L154.676 976.806Z" stroke="white" stroke-opacity="0.2" stroke-width="2" stroke-miterlimit="10" stroke-linejoin="round"/>
<path d="M815.044 1218.24C781.442 1198.16 761.848 1185.25 718.658 1155.72C630.572 1203.14 586.407 1223.14 516.836 1246.11L815.044 1218.24Z" stroke="white" stroke-opacity="0.2" stroke-width="2" stroke-miterlimit="10" stroke-linejoin="round"/>
<path d="M815.043 1218.24C818.923 1216.9 975.345 1179.02 975.345 1179.02C988.5 1158.46 994.956 1147.91 1007.5 1126.4C934.835 1171.12 895.629 1190.53 815.043 1218.24Z" stroke="white" stroke-opacity="0.2" stroke-width="2" stroke-miterlimit="10" stroke-linejoin="round"/>
<path d="M718.657 1155.72C630.571 1203.14 586.406 1223.14 516.835 1246.11C502.479 1203 494.996 1180.48 479.979 1134.07C572.902 1153.25 624.41 1158.17 718.657 1155.72Z" stroke="white" stroke-opacity="0.2" stroke-width="2" stroke-miterlimit="10" stroke-linejoin="round"/>
<path d="M1243.09 533.821L1241.14 785.166L1202.59 596.848L1243.09 533.821Z" stroke="white" stroke-opacity="0.2" stroke-width="2" stroke-miterlimit="10" stroke-linejoin="round"/>
<path d="M134.127 300.357L49.1562 484.041L137.016 391.722L134.127 300.357Z" stroke="white" stroke-opacity="0.2" stroke-width="2" stroke-miterlimit="10" stroke-linejoin="round"/>
<path d="M1020.16 178.436L849.223 66.4595L956.711 154.963L1020.16 178.436Z" stroke="white" stroke-opacity="0.2" stroke-width="2" stroke-miterlimit="10" stroke-linejoin="round"/>
<path d="M1135.23 977.972L1068.25 1094.52L1007.52 1126.4L1135.23 977.972Z" stroke="white" stroke-opacity="0.2" stroke-width="2" stroke-miterlimit="10" stroke-linejoin="round"/>
<path d="M1068.26 1094.52L975.35 1179.02L1007.52 1126.4L1068.26 1094.52Z" stroke="white" stroke-opacity="0.2" stroke-width="2" stroke-miterlimit="10" stroke-linejoin="round"/>
<path d="M777.77 620.903L774.465 681.747L774.38 683.328L764.58 730.502L754.039 781.193L753.369 784.426C753.369 784.426 739.965 850.097 692.133 841.069C691.435 840.955 690.737 840.799 690.039 840.642L689.028 838.406L688.857 838.036L675.196 807.806C671.578 806.852 699.711 595.942 699.711 595.942L727.302 579.125C740.151 583.739 753.127 590.36 766.218 598.619C773.824 603.418 778.254 611.933 777.77 620.903Z" fill="white"/>
<path d="M700.954 846.907C697.783 846.907 694.532 846.594 691.208 845.967C690.555 845.862 689.783 845.691 689.011 845.52C687.481 845.178 686.142 844.125 685.498 842.695L671.137 810.928C669.468 808.757 669.758 804.731 670.24 798.07C670.644 792.459 671.419 784.283 672.545 773.769C674.431 756.13 677.325 731.613 681.151 700.901C687.658 648.638 694.7 595.811 694.772 595.284C694.971 593.792 695.834 592.47 697.116 591.687L724.707 574.871C725.995 574.087 727.571 573.925 728.989 574.435C741.678 578.991 755.102 585.709 768.882 594.404C778.018 600.168 783.332 610.423 782.75 621.171L779.36 683.595C779.346 683.846 779.315 684.094 779.263 684.339L758.253 785.434C758.111 786.126 754.621 802.877 744.946 818.725C733.605 837.307 718.534 846.907 700.954 846.907ZM693.524 836.259C710.902 839.309 725.254 831.728 736.308 813.735C745.131 799.371 748.45 783.585 748.481 783.426L769.418 682.684L772.788 620.635C773.173 613.493 769.634 606.67 763.555 602.834C751.196 595.036 739.194 588.922 727.838 584.636L704.338 598.96C693.923 677.162 679.202 793.849 679.855 806.009L693.524 836.259Z" fill="#371A45"/>
<path d="M700.956 846.916C697.062 846.916 693.048 846.443 688.922 845.497C686.239 844.882 684.561 842.208 685.179 839.526C685.794 836.843 688.469 835.166 691.153 835.784C701.87 838.238 711.568 836.743 719.984 831.338C741.228 817.691 748.421 783.765 748.492 783.423L769.429 682.681L772.799 620.63C773.186 613.487 769.651 606.667 763.569 602.831C750.401 594.524 737.632 588.125 725.619 583.813C723.026 582.882 721.682 580.028 722.61 577.44C723.542 574.848 726.396 573.501 728.986 574.432C741.684 578.989 755.11 585.71 768.89 594.401C778.027 600.165 783.337 610.423 782.753 621.168L779.363 683.595C779.348 683.846 779.317 684.094 779.266 684.339L758.255 785.437C757.942 786.977 750.19 823.749 725.408 839.699C717.944 844.506 709.756 846.916 700.956 846.916Z" fill="#371A45"/>
<path d="M738.682 623.711C737.471 623.711 736.257 623.272 735.3 622.387C733.277 620.519 733.152 617.366 735.021 615.344C746.755 602.646 774.412 606.869 777.529 607.393C780.244 607.849 782.076 610.42 781.62 613.134C781.164 615.848 778.594 617.671 775.88 617.224C769.356 616.136 749.188 614.703 742.345 622.108C741.363 623.173 740.024 623.711 738.682 623.711Z" fill="#371A45"/>
<path d="M725.922 689.037C725.694 689.379 725.466 689.735 725.238 690.091C725.238 690.091 723.457 812.548 672.177 864.52C672.177 864.52 647.492 890.863 648.432 929.779V1012.45C648.432 1018.7 643.375 1023.76 637.122 1023.76H530.318C525.304 1023.76 520.902 1020.44 519.464 1015.63C518.552 1012.62 517.968 1009.69 517.655 1006.86C515.19 984.172 531.087 967.655 549.676 964.907C549.676 964.907 546.827 934.534 548.251 901.542C446.162 901.3 424.682 818.599 475.605 748.941C475.605 748.941 478.696 725.931 482.727 705.754C425.038 659.833 493.71 576.12 552.026 557.837L715.082 584.607C715.082 584.607 767.757 623.466 725.922 689.037Z" fill="white"/>
<path d="M637.121 1028.74H530.317C523.058 1028.74 516.776 1024.04 514.685 1017.05C513.725 1013.89 513.056 1010.64 512.697 1007.4C510.002 982.6 526.306 965.692 544.351 960.922C543.675 951.858 542.356 930.109 543.08 906.443C499.481 905.136 467.491 888.476 452.674 859.223C436.452 827.194 443.25 785.331 470.833 747.027C471.502 742.214 474.049 724.35 477.262 707.702C459.887 692.716 452.933 672.972 457.141 650.412C465.203 607.179 511.939 565.182 550.533 553.081C551.276 552.848 552.062 552.791 552.832 552.919L715.887 579.689C716.665 579.817 717.403 580.127 718.038 580.597C718.619 581.027 732.365 591.313 740.743 610.215C748.475 627.655 752.914 655.925 730.188 691.611C729.818 706.318 725.374 817.696 675.724 868.02C675.587 868.171 652.537 893.366 653.414 929.659V1012.45C653.417 1021.43 646.107 1028.74 637.121 1028.74ZM552.404 562.949C516.796 574.625 474.274 612.937 466.947 652.237C463.22 672.22 469.576 688.912 485.835 701.855C487.296 703.02 487.983 704.899 487.618 706.73C483.667 726.511 480.579 749.377 480.547 749.605C480.436 750.428 480.123 751.211 479.63 751.883C454.073 786.843 447.153 826.248 461.571 854.721C475.186 881.602 505.971 896.459 548.262 896.558C549.621 896.561 550.917 897.117 551.855 898.099C552.792 899.082 553.29 900.403 553.23 901.759C551.837 934.036 554.609 964.14 554.638 964.442C554.886 967.079 553.025 969.452 550.402 969.839C535.251 972.08 520.36 985.624 522.608 1006.32C522.899 1008.94 523.443 1011.59 524.232 1014.18C525.055 1016.94 527.497 1018.78 530.314 1018.78H637.118C640.605 1018.78 643.443 1015.94 643.443 1012.45V929.781C642.466 889.413 667.47 862.253 668.536 861.117C717.927 811.055 720.231 691.227 720.249 690.022C720.263 689.097 720.533 688.191 721.032 687.411C721.268 687.043 721.505 686.673 721.739 686.32C757.931 629.543 719.713 594.776 713.01 589.32L552.404 562.949Z" fill="#371A45"/>
<path d="M596.896 707.207C593.206 709.542 590.742 713.913 590.742 718.925C590.742 726.401 596.241 732.453 603.035 732.453C608.348 732.453 612.878 728.736 614.587 723.539" fill="#10AFFF"/>
<path d="M783.097 705.997C782.171 709.699 780.889 714.768 779.393 720.535C775.448 735.899 770.163 756.161 766.944 768.507C765.277 774.857 760.291 779.699 754.038 781.194C753.269 781.379 752.471 781.507 751.659 781.593C741.361 782.604 726.504 782.262 714.453 774.658L715.165 770.23L726.134 702.693L728.598 687.457L729.239 683.542L735.805 683.285H735.82L774.465 681.748L781.416 693.851C783.524 697.525 784.137 701.882 783.097 705.997Z" fill="white"/>
<path d="M743.469 786.983C733.535 786.983 721.84 785.214 711.792 778.872C710.103 777.807 709.214 775.837 709.53 773.866L710.242 769.437L724.318 682.735C724.7 680.397 726.677 678.651 729.042 678.56L735.609 678.304C735.634 678.304 735.657 678.304 735.68 678.301L774.265 676.766C776.134 676.698 777.863 677.655 778.786 679.264L785.737 691.367C788.512 696.2 789.29 701.827 787.928 707.212C786.999 710.926 785.715 716.004 784.219 721.782C780.282 737.117 775.006 757.346 771.784 769.702C769.641 777.87 763.294 784.104 755.2 786.04C754.266 786.265 753.246 786.436 752.178 786.547C749.517 786.809 746.577 786.983 743.469 786.983ZM719.923 772.043C730.213 777.306 742.412 777.491 751.172 776.631C751.773 776.568 752.357 776.472 752.873 776.346C757.388 775.267 760.932 771.778 762.123 767.242C765.357 754.842 770.627 734.628 774.567 719.296C776.06 713.535 777.339 708.48 778.262 704.789C778.262 704.786 778.265 704.78 778.265 704.777C778.988 701.91 778.572 698.911 777.094 696.334L771.647 686.847L736.019 688.266C735.993 688.266 735.968 688.266 735.942 688.269L733.503 688.365L719.923 772.043Z" fill="#371A45"/>
<path d="M637.124 1028.74H530.319C523.072 1028.74 516.787 1024.05 514.682 1017.06C510.597 1003.51 512.115 990.113 518.958 979.334C524.77 970.181 533.858 963.633 544.35 960.908C543.675 951.835 542.359 930.089 543.082 906.44C499.492 905.133 467.496 888.473 452.682 859.22C436.457 827.188 443.255 785.328 470.838 747.027C471.504 742.212 474.048 724.341 477.265 707.696C459.892 692.713 452.938 672.969 457.143 650.412C465.203 607.182 511.938 565.179 550.535 553.076C551.278 552.842 552.068 552.788 552.837 552.913L715.895 579.691C716.673 579.82 717.411 580.13 718.046 580.6C718.633 581.033 732.527 591.427 740.888 610.522C748.523 627.957 752.794 656.105 730.196 691.603C729.826 706.275 725.393 817.688 675.731 868.02C675.592 868.171 652.539 893.363 653.425 929.662V1012.45C653.422 1021.44 646.109 1028.74 637.124 1028.74ZM552.401 562.943C516.79 574.625 474.268 612.943 466.94 652.24C463.217 672.22 469.573 688.912 485.828 701.855C487.29 703.02 487.976 704.899 487.612 706.73C483.655 726.506 480.572 749.38 480.544 749.607C480.433 750.433 480.119 751.214 479.626 751.886C454.069 786.846 447.152 826.251 461.573 854.721C475.188 881.602 505.973 896.459 548.259 896.556C549.618 896.558 550.914 897.114 551.851 898.096C552.788 899.079 553.287 900.4 553.227 901.756C551.834 934.03 554.606 964.138 554.634 964.439C554.882 967.077 553.022 969.446 550.401 969.836C540.857 971.249 532.464 976.659 527.374 984.679C523.647 990.548 520.078 1000.43 524.226 1014.19C525.055 1016.93 527.502 1018.78 530.316 1018.78H637.121C640.608 1018.78 643.445 1015.94 643.445 1012.45V929.781C642.46 889.408 667.47 862.248 668.532 861.111C717.923 811.049 720.228 691.221 720.245 690.017C720.259 689.077 720.539 688.16 721.051 687.371C737.948 661.407 741.546 636.896 731.743 614.518C725.578 600.444 715.929 591.743 712.992 589.317L552.401 562.943Z" fill="#371A45"/>
<path d="M644.543 746.552C644.543 746.552 693.948 756.736 719.859 746.552C731.052 739.657 732.197 722.337 723.445 718.139C723.445 718.139 712.711 719.455 704.552 717.23" fill="white"/>
<path d="M688.655 756.066C666.394 756.066 644.894 751.715 643.535 751.433C640.84 750.877 639.105 748.24 639.66 745.546C640.216 742.849 642.857 741.115 645.549 741.67C646.027 741.767 693.248 751.322 717.6 742.08C722.497 738.851 724.463 733.033 724.232 728.61C724.109 726.249 723.372 724.341 722.209 723.265C718.56 723.561 710.204 723.937 703.241 722.04C700.586 721.317 699.019 718.577 699.743 715.923C700.467 713.266 703.207 711.703 705.865 712.423C712.956 714.357 722.748 713.206 722.847 713.192C723.79 713.078 724.75 713.235 725.608 713.648C730.636 716.06 733.847 721.459 734.194 728.092C734.673 737.205 730.075 746.119 722.48 750.798C722.229 750.954 721.964 751.085 721.688 751.193C712.363 754.853 700.401 756.066 688.655 756.066Z" fill="#371A45"/>
<path d="M813.604 430.183C819.217 515.869 753.168 589.955 666.093 595.654C610.631 599.282 560.015 574.289 529.127 533.523C529.087 533.463 528.899 533.229 528.589 532.819C511.285 509.703 500.291 481.601 498.274 450.816C495.704 411.556 508.171 374.745 530.791 345.819L530.837 345.768C557.616 311.574 598.606 288.421 645.772 285.337C732.847 279.638 807.992 344.484 813.604 430.183Z" fill="white"/>
<path d="M769.802 437.699L748.504 518.885C699.982 578.872 580.816 583.602 529.138 533.531C529.138 533.531 529.138 533.531 529.123 533.52C529.083 533.46 528.895 533.227 528.585 532.816C511.281 509.701 500.287 481.598 498.27 450.813C495.7 411.553 508.167 374.742 530.787 345.816L530.833 345.765C582.83 283.942 749.455 306.266 769.802 437.699Z" fill="#371A45"/>
<g opacity="0.7">
<path d="M769.803 437.699L749.291 519.933C700.769 579.92 580.817 583.605 529.136 533.534C529.136 533.534 529.136 533.534 529.122 533.523C529.082 533.463 528.894 533.229 528.583 532.819C513.749 513.013 503.559 489.529 499.676 463.839C525.073 498.739 567.265 520.263 613.537 517.233C685.271 512.54 739.622 450.597 734.927 378.888C734.514 372.592 733.657 366.435 732.389 360.44C751.08 379.899 764.818 405.535 769.803 437.699Z" fill="#111A28"/>
</g>
<path d="M655.463 600.982C604.2 600.982 556.103 577.385 525.147 536.53C525.13 536.507 525.113 536.485 525.098 536.465L524.606 535.824C506.128 511.139 495.305 481.863 493.294 451.141C490.744 412.182 502.664 373.688 526.859 342.749C526.902 342.695 526.944 342.644 526.987 342.593C555.618 306.095 598.785 283.415 645.441 280.362C688.872 277.52 730.793 291.494 763.489 319.713C796.209 347.949 815.772 387.067 818.572 429.856C824.353 518.15 756.094 594.754 666.411 600.623C662.75 600.863 659.098 600.982 655.463 600.982ZM533.095 530.513C564.216 571.587 613.815 594.079 665.762 590.679C749.954 585.171 814.037 513.312 808.624 430.508C805.997 390.405 787.654 353.736 756.974 327.257C726.272 300.761 686.897 287.635 646.093 290.309C602.22 293.18 561.641 314.513 534.756 348.841C534.716 348.892 534.673 348.943 534.634 348.992C512.002 377.983 500.854 414.022 503.242 450.491C505.128 479.28 515.27 506.716 532.574 529.832L532.916 530.279C532.987 530.37 533.047 530.447 533.095 530.513Z" fill="#371A45"/>
<g opacity="0.25">
<path d="M813.606 430.183C819.218 515.869 753.17 589.955 666.094 595.654C620.925 598.61 579.075 578.968 548.367 550.886C572.591 562.807 600.171 572.361 629.187 570.462C716.263 564.763 782.311 490.677 776.699 404.991C773.998 363.746 755.198 327.345 726.712 301.296C775.212 325.164 809.862 373.038 813.606 430.183Z" fill="#371A45"/>
</g>
<path d="M629.148 572.41C588.686 572.41 550.314 559.008 526.657 536.091C525.244 534.724 525.21 532.469 526.577 531.056C527.945 529.644 530.198 529.607 531.614 530.976C556.508 555.092 598.927 568.058 642.307 564.794C686.362 561.488 725.013 542.188 748.488 511.805L766.176 437.545C753.328 356.737 688.265 330.227 660.828 322.569C610.314 308.475 557.961 318.975 533.514 348.106C532.252 349.612 530.005 349.809 528.498 348.547C526.991 347.283 526.794 345.039 528.056 343.532C554.237 312.331 609.625 300.889 662.739 315.714C690.319 323.409 714.811 337.523 733.571 356.53C755.032 378.27 768.404 405.393 773.318 437.143C773.39 437.599 773.37 438.063 773.264 438.513L755.237 514.194C755.12 514.678 754.906 515.131 754.604 515.527C729.944 547.87 689.205 568.414 642.837 571.894C638.262 572.242 633.692 572.41 629.148 572.41Z" fill="#371A45"/>
<path d="M818.696 493.761C812.107 519.528 791.176 535.974 768.359 530.145C745.54 524.315 735.056 500.049 741.643 474.282C748.232 448.515 769.399 431.003 792.216 436.836C815.035 442.665 825.283 467.994 818.696 493.761Z" fill="white"/>
<path d="M777.519 536.296C774.069 536.296 770.587 535.858 767.123 534.975C754.751 531.814 744.925 523.581 739.449 511.788C734.233 500.553 733.296 486.792 736.811 473.046C740.341 459.245 747.796 447.421 757.81 439.752C768.451 431.601 781.108 428.853 793.45 432.006C805.8 435.161 815.594 443.608 821.035 455.791C826.166 467.282 827.049 481.208 823.525 494.997C820.01 508.749 812.571 520.403 802.583 527.807C795.025 533.409 786.382 536.296 777.519 536.296ZM783.336 440.68C775.003 440.68 768.354 444.234 763.876 447.666C755.631 453.983 749.449 463.873 746.472 475.518C743.523 487.046 744.241 498.437 748.494 507.593C752.745 516.749 760.041 522.877 769.593 525.318C779.131 527.756 788.487 525.848 796.643 519.802C804.8 513.756 810.916 504.07 813.865 492.531C816.836 480.909 816.15 469.304 811.93 459.855C808.979 453.245 802.948 444.721 790.983 441.666C788.302 440.979 785.749 440.68 783.336 440.68Z" fill="#371A45"/>
<g opacity="0.25">
<path d="M818.694 493.758C812.102 519.526 791.174 535.972 768.352 530.151C754.922 526.711 745.755 516.894 741.857 504.133C747.558 510.566 754.774 514.531 762.748 514.852C782.502 515.647 799.433 493.784 800.553 466.001C800.969 455.697 799.145 446.017 795.676 437.893C816.059 445.308 824.936 469.327 818.694 493.758Z" fill="#371A45"/>
</g>
<path d="M786.164 531.788C783.908 531.788 781.628 531.506 779.341 530.923C770.014 528.539 762.843 521.63 759.148 511.469C755.727 502.054 755.504 490.364 758.524 478.548C761.558 466.684 767.396 456.358 774.959 449.469C783.218 441.948 792.893 439.114 802.209 441.495C811.522 443.876 818.664 450.967 822.316 461.467C825.669 471.104 825.846 482.94 822.815 494.792C817.051 517.327 802.274 531.788 786.164 531.788ZM795.679 449.21C789.409 449.21 784.212 452.599 780.717 455.785C774.372 461.564 769.432 470.401 766.809 480.664C764.208 490.831 764.342 500.733 767.185 508.55C769.093 513.804 773.122 520.514 781.46 522.644C795.061 526.118 809.277 513.235 814.536 492.676C817.157 482.43 817.054 472.343 814.245 464.272C812.351 458.821 808.357 451.884 800.095 449.771C798.571 449.384 797.098 449.21 795.679 449.21Z" fill="#371A45"/>
<path d="M787.228 440.109C785.196 440.109 783.393 438.656 783.025 436.586C765.927 340.642 697.309 289.498 599.461 299.753C597.105 299.998 595.011 298.298 594.766 295.951C594.518 293.605 596.222 291.503 598.569 291.258C644.601 286.431 686.181 294.898 718.812 315.744C757.269 340.312 781.704 380.466 791.438 435.088C791.851 437.412 790.304 439.63 787.98 440.043C787.729 440.089 787.478 440.109 787.228 440.109Z" fill="#371A45"/>
<g opacity="0.5">
<path d="M627.709 344.478C579.028 362.265 549.468 397.573 533.728 445.542C532.585 449.025 527.469 448.327 527.318 444.665C524.617 379.384 545.003 333.269 626.772 338.113C630.342 338.324 631.068 343.251 627.709 344.478Z" fill="#F8F8F8"/>
</g>
<g opacity="0.5">
<path d="M719.485 498.541C725.953 492.145 726.981 482.702 721.782 477.449C716.584 472.196 707.127 473.123 700.659 479.518C694.192 485.914 693.164 495.357 698.362 500.61C703.561 505.863 713.018 504.937 719.485 498.541Z" fill="#F8F8F8"/>
</g>
<g opacity="0.5">
<path d="M686.136 533.668C678.641 541.081 668.072 542.548 662.525 536.946C656.978 531.344 661.251 523.342 668.744 515.929C676.239 508.516 684.119 504.501 689.663 510.102C695.207 515.704 693.629 526.255 686.136 533.668Z" fill="#F8F8F8"/>
</g>
<path d="M637.432 589.841C612.308 589.841 587.161 584.371 564.777 572.82C562.68 571.738 561.857 569.16 562.94 567.064C564.022 564.968 566.601 564.145 568.697 565.227C632.005 597.895 718.631 579.361 757.854 524.757C759.233 522.84 761.902 522.405 763.82 523.78C765.737 525.156 766.176 527.827 764.8 529.741C737.151 568.223 687.353 589.841 637.432 589.841Z" fill="#371A45"/>
<path d="M658.379 744.619C648.28 744.619 637.819 741.999 626.944 736.779C616.369 731.701 606.521 724.499 597.675 715.369C586.408 703.744 577.24 690.624 569.149 679.047C555.093 658.93 543.988 643.039 528.92 642.384C527.299 642.313 525.812 641.459 524.938 640.092C524.063 638.728 523.906 637.019 524.522 635.518C524.667 635.162 539.55 599.812 578.519 601.939C591.818 602.66 604.609 607.76 615.509 616.691C619.418 619.895 623.053 623.361 626.383 627.063C633.503 628.496 658.519 634.798 660.222 652.773C660.886 659.77 656.556 666.309 649.191 669.436C641.964 672.503 634.474 671.193 630.107 666.098C623.717 658.648 624.358 646.229 624.945 641.148C623.429 639.038 621.816 636.993 620.107 635.02C620.047 634.954 619.988 634.886 619.931 634.815C616.677 631.078 613.085 627.593 609.187 624.4C599.937 616.822 589.146 612.496 577.978 611.89C554.754 610.642 542.125 625.215 536.803 633.624C552.743 638.161 564.258 654.639 577.32 673.335C585.582 685.156 594.123 697.379 604.832 708.428C612.857 716.707 621.748 723.22 631.258 727.788C665.504 744.234 693.187 731.792 721.009 687.44C722.473 685.108 725.547 684.401 727.88 685.865C730.213 687.326 730.917 690.402 729.456 692.734C707.702 727.426 684.241 744.619 658.379 744.619ZM635.141 639.915C635.141 640.192 635.115 640.468 635.069 640.744C634.491 644.167 633.725 655 637.679 659.614C639.366 661.579 642.722 661.357 645.297 660.263C647.79 659.204 650.596 656.857 650.297 653.716C649.684 647.226 642.388 642.715 635.141 639.915Z" fill="#371A45"/>
<path d="M650.953 653.628C658.674 645.238 666.744 635.985 675.206 628.328C670.787 635.498 666.699 643.854 662.955 651.426C661.745 653.878 660.349 656.926 659.07 659.412C659.072 659.415 650.953 653.628 650.953 653.628Z" fill="#371A45"/>
<path d="M581.333 684.785C579.459 684.785 577.533 684.676 575.559 684.449C573.214 684.178 571.533 682.056 571.804 679.713C572.075 677.369 574.194 675.683 576.539 675.959C607.395 679.542 624.756 646.296 624.927 645.963C625.998 643.861 628.573 643.03 630.676 644.101C632.778 645.174 633.613 647.746 632.539 649.847C631.77 651.351 614.292 684.785 581.333 684.785Z" fill="#371A45"/>
<path d="M508.735 645.192C505.282 645.192 501.767 644.907 498.479 644.164C495.793 643.555 494.109 640.886 494.719 638.204C495.325 635.518 498 633.841 500.681 634.442C511.855 636.976 527.637 632.647 527.797 632.605C530.449 631.864 533.198 633.416 533.936 636.065C534.677 638.716 533.13 641.464 530.478 642.205C529.916 642.364 519.629 645.192 508.735 645.192Z" fill="#371A45"/>
<path d="M504.936 712.446C491.31 712.446 482.603 710.809 481.766 710.647C479.065 710.117 477.304 707.497 477.834 704.797C478.364 702.097 480.982 700.346 483.68 700.864C484.145 700.955 530.795 709.599 580.086 684.58C582.542 683.333 585.542 684.313 586.79 686.768C588.037 689.222 587.057 692.224 584.602 693.469C553.763 709.12 524.354 712.446 504.936 712.446Z" fill="#371A45"/>
<path d="M555.803 704.011C554.917 704.011 554.025 703.738 553.259 703.171C519.992 678.497 533.385 637.839 533.525 637.432C534.288 635.199 536.712 634.003 538.949 634.769C541.179 635.529 542.373 637.953 541.615 640.183C541.134 641.609 530.157 675.399 558.35 696.311C560.244 697.717 560.64 700.391 559.236 702.288C558.401 703.416 557.11 704.011 555.803 704.011Z" fill="#371A45"/>
<path d="M541.484 592.908C533.475 604.14 526.966 616.431 521.821 629.19C520.094 633.393 518.655 637.69 517.291 641.968L508.061 638.194C516.807 621.5 528.034 606.085 541.484 592.908Z" fill="#371A45"/>
<path d="M618.771 768.956C616.279 768.956 613.791 768.549 611.427 767.743L504.731 731.362C498.805 729.343 495.184 723.385 496.127 717.194L497.734 706.645C498.15 703.923 500.688 702.049 503.412 702.468C506.132 702.883 508.004 705.424 507.591 708.143L505.984 718.692C505.771 720.107 506.594 721.466 507.947 721.927L614.646 758.308C616.666 758.997 618.848 759.171 620.951 758.801L633.187 756.665C634.922 756.363 636.352 755.138 636.921 753.472L642.172 738.051C643.058 735.446 645.89 734.053 648.499 734.939C651.106 735.827 652.499 738.658 651.613 741.264L646.363 756.685C644.619 761.802 640.229 765.556 634.904 766.484L622.669 768.62C621.381 768.845 620.076 768.956 618.771 768.956Z" fill="#371A45"/>
<path d="M611.938 766.757C610.685 766.757 609.423 766.598 608.178 766.279L604.112 765.234C601.446 764.547 599.839 761.833 600.526 759.168C601.209 756.502 603.927 754.893 606.597 755.582L610.662 756.627C611.97 756.963 613.331 756.767 614.491 756.072C615.65 755.377 616.465 754.272 616.784 752.959L622.34 730.16C622.992 727.486 625.69 725.84 628.362 726.497C631.037 727.15 632.678 729.844 632.026 732.518L626.47 755.317C625.516 759.239 623.08 762.545 619.616 764.621C617.257 766.031 614.619 766.757 611.938 766.757Z" fill="#371A45"/>
<path d="M565.585 749.659C565.231 749.659 564.872 749.613 564.513 749.522C562.229 748.93 560.856 746.603 561.445 744.316L569.493 713.192L564.494 696.459C563.818 694.197 565.103 691.819 567.365 691.142C569.624 690.47 572.006 691.751 572.681 694.012L578.02 711.888C578.242 712.634 578.259 713.426 578.063 714.181L569.716 746.455C569.223 748.38 567.488 749.659 565.585 749.659Z" fill="#371A45"/>
<path d="M603.033 736.724C593.9 736.724 586.467 728.739 586.467 718.925C586.467 712.649 589.586 706.776 594.606 703.598C596.6 702.339 599.241 702.929 600.503 704.922C601.765 706.916 601.173 709.553 599.178 710.817C596.609 712.444 595.013 715.551 595.013 718.925C595.013 724.029 598.612 728.181 603.033 728.181C606.338 728.181 609.349 725.78 610.526 722.203C611.263 719.962 613.676 718.743 615.921 719.481C618.163 720.218 619.383 722.63 618.648 724.871C616.314 731.963 610.038 736.724 603.033 736.724Z" fill="#371A45"/>
<path d="M543.262 901.542C543.664 878.549 544.866 855.965 550.182 833.393L554.165 839.528C549.869 838.292 546.091 836.822 542.086 835.068C530.753 830.002 519.582 823.019 512.637 812.547C518.377 818.277 525.525 822.062 533.035 824.773C538.63 826.718 544.37 828.139 550.205 829.036C552.102 829.335 554.136 829.592 555.866 829.708C558.364 829.874 560.258 832.032 560.093 834.533C557.532 845.497 555.814 856.831 554.84 868.336C553.883 879.349 553.324 890.581 553.239 901.605C553.002 908.158 543.433 908.158 543.262 901.542Z" fill="#371A45"/>
<path d="M480.591 748.947C479.153 757.804 479.409 767.287 482.728 775.765C477.822 770.306 474.646 763.423 472.458 756.431C471.674 753.823 471.011 751.442 470.575 748.657C469.851 740.646 481.776 740.987 480.591 748.947Z" fill="#371A45"/>
<path d="M556.474 848.898C545.326 858.597 532.845 867.494 518.336 870.929C528.002 866.264 535.734 858.652 542.605 850.604C544.839 847.941 547.078 845.096 548.924 842.385L556.474 848.898Z" fill="#371A45"/>
<path d="M599.455 947.335C578.324 947.335 556.579 943.038 544.936 934.249C542.739 932.589 542.3 929.465 543.958 927.269C545.617 925.071 548.742 924.635 550.941 926.293C560.288 933.347 580.242 937.698 601.802 937.322C622.095 936.992 639.649 932.427 644.498 926.224C646.193 924.054 649.327 923.67 651.495 925.364C653.666 927.059 654.05 930.188 652.355 932.358C644.618 942.263 622.402 947.335 599.455 947.335Z" fill="#371A45"/>
<path d="M549.311 959.938C563.623 961.031 577.195 968.37 586.711 978.91C576.278 971.887 563.467 968.151 550.957 969.706C550.672 969.751 550.254 969.802 550.04 969.879C550.04 969.876 549.311 959.938 549.311 959.938Z" fill="#371A45"/>
<path d="M743.511 786.983C733.574 786.983 721.848 785.215 711.788 778.867C709.461 777.397 708.763 774.319 710.233 771.992C711.703 769.665 714.78 768.968 717.11 770.437C727.904 777.249 741.593 777.571 751.171 776.637C756.385 776.13 760.786 772.359 762.119 767.253C766.709 749.679 774.914 718.194 778.267 704.789C778.988 701.91 778.569 698.908 777.09 696.331L771.643 686.842L729.434 688.514C726.679 688.647 724.363 686.483 724.255 683.732C724.147 680.981 726.286 678.663 729.038 678.555L774.267 676.763C776.125 676.684 777.865 677.652 778.788 679.261L785.737 691.367C788.506 696.188 789.286 701.813 787.939 707.207C784.574 720.654 776.361 752.177 771.766 769.771C769.381 778.901 761.493 785.647 752.137 786.556C749.505 786.812 746.593 786.983 743.511 786.983Z" fill="#371A45"/>
<path d="M782.737 703.829C773.871 701.779 764.379 700.799 755.205 700.978C752.063 701.027 748.935 701.323 745.775 701.722C748.71 700.523 751.724 699.398 754.815 698.518C764.304 695.795 773.868 694.277 783.811 693.921C783.814 693.919 782.737 703.829 782.737 703.829Z" fill="#371A45"/>
<g opacity="0.25">
<path d="M539.614 622.099C539.614 622.099 554.226 616.523 569.755 633.134C585.287 649.746 618.761 698.99 649.031 705.042C679.3 711.094 709.213 669.837 704.584 644.722C699.954 619.607 693.9 614.623 693.9 614.623C693.9 614.623 636.815 614.222 603.477 587.304C644.014 598.764 681.619 599.359 715.082 584.61C715.082 584.61 749.092 609.5 742.063 640.732C735.035 671.964 729.184 690.091 717.418 701.718C705.652 713.346 674.42 759.27 623.442 729.308C572.464 699.346 583.863 672.292 544.215 644.525L532.537 636.457C532.537 636.457 530.11 629.945 539.614 622.099Z" fill="#371A45"/>
</g>
<g opacity="0.25">
<path d="M720.348 743.374C720.191 744.428 720.034 745.481 719.863 746.549C713.681 785.735 700.463 835.857 672.173 864.521C672.173 864.521 647.488 890.863 648.428 929.779V1012.45C648.428 1018.7 643.371 1023.76 637.118 1023.76H530.314C525.3 1023.76 520.898 1020.44 519.459 1015.63C518.548 1012.62 517.964 1009.69 517.65 1006.86C526.055 1006.67 553.603 1006.1 586.707 1005.62C626.591 1005.03 622.318 968.467 616.264 901.542C610.225 834.618 667.188 817.175 677.515 790.79C687.842 764.419 668.256 751.077 668.256 751.077H697.97C705.961 731.612 691.945 726.572 691.945 726.572L706.83 714.297L725.903 689.023L725.917 689.037C725.689 689.379 725.462 689.735 725.234 690.091C725.234 690.091 725.077 701.197 723.439 718.142C723.368 718.84 723.311 719.552 723.239 720.278C733.011 724.222 727.869 739.999 720.348 743.374Z" fill="#371A45"/>
</g>
<g opacity="0.25">
<path d="M544.216 644.525C544.216 644.525 563.209 670.922 530.447 680.508C497.685 690.094 468.128 676.413 462.074 664.207C462.074 664.207 469.236 700.987 484.441 706.039C499.645 711.091 560.728 728.813 587.727 698.415C587.727 698.418 562.733 659.477 544.216 644.525Z" fill="#371A45"/>
</g>
<g opacity="0.25">
<path d="M496.285 892.128C539.246 888.326 535.232 855.448 489.137 796.529C489.137 796.529 508.011 821.447 555.017 832.839L548.285 898.327C548.285 898.327 510.914 899.968 496.285 892.128Z" fill="#371A45"/>
</g>
<g opacity="0.25">
<path d="M511.151 728.283C511.151 728.283 503.38 749.539 552.702 770.186C602.025 790.833 641.197 794.749 646.894 779.798C652.592 764.846 652.441 746.552 652.441 746.552L646.894 738.396L626.918 732.452C626.918 732.452 623.762 753.327 616.278 758.553C608.794 763.779 589.31 754.933 589.31 754.933L511.151 728.283Z" fill="#371A45"/>
</g>
<g opacity="0.25">
<path d="M779.397 720.535C775.451 735.899 770.167 756.162 766.947 768.507C765.281 774.858 760.295 779.699 754.042 781.194L753.372 784.426C753.372 784.426 739.969 850.097 692.136 841.07C690.541 839.845 689.472 838.834 689.031 838.407C688.874 838.265 688.803 838.179 688.803 838.179L688.86 838.037L711.109 787.63L715.169 770.23L717.405 760.69C717.405 760.69 715.981 755.236 723.288 745.796C730.581 736.369 726.351 715.779 726.351 715.779L726.137 702.694L725.909 689.024L728.602 687.458L735.809 683.286L735.823 683.271C735.823 683.271 735.823 683.271 735.823 683.286C735.866 684.026 737.319 710.283 743.017 728.281C746.008 737.694 755.794 735.159 764.583 730.503C771.192 727 777.232 722.287 779.397 720.535Z" fill="#371A45"/>
</g>
</svg>
