<svg width="656" height="657" viewBox="0 0 656 657" fill="none" xmlns="http://www.w3.org/2000/svg">
<path d="M121.896 77.0783L84.2949 110.337L166.774 70.5254L121.896 77.0783Z" stroke="white" stroke-opacity="0.05" stroke-width="2" stroke-miterlimit="10" stroke-linejoin="round"/>
<path d="M121.895 77.0778L166.772 70.5155C187.079 50.9138 197.031 41.1414 216.065 22.3564L121.895 77.0778Z" stroke="white" stroke-opacity="0.05" stroke-width="2" stroke-miterlimit="10" stroke-linejoin="round"/>
<path d="M166.774 70.5254C149.33 96.3381 140.36 109.539 122.794 135.912C107.931 125.655 92.9562 114.278 84.2949 110.337L166.774 70.5254Z" stroke="white" stroke-opacity="0.05" stroke-width="2" stroke-miterlimit="10" stroke-linejoin="round"/>
<path d="M166.771 70.5257C187.077 50.924 197.03 41.1517 216.064 22.3667C181.26 66.442 161.552 90.1749 122.791 135.912C140.357 109.539 149.327 96.3384 166.771 70.5257Z" stroke="white" stroke-opacity="0.05" stroke-width="2" stroke-miterlimit="10" stroke-linejoin="round"/>
<path d="M122.791 135.911C163.133 104.334 183.551 87.9993 222.2 58.3309C218.776 42.8888 217.514 35.6522 216.064 22.3564C181.26 66.4318 161.552 90.1646 122.791 135.911Z" stroke="white" stroke-opacity="0.05" stroke-width="2" stroke-miterlimit="10" stroke-linejoin="round"/>
<path d="M222.202 58.3317C252.975 34.4944 267.959 23.0316 295.842 3.40137C262.534 6.98172 246.409 10.9514 216.066 22.3573C217.516 35.6625 218.779 42.8992 222.202 58.3317Z" stroke="white" stroke-opacity="0.05" stroke-width="2" stroke-miterlimit="10" stroke-linejoin="round"/>
<path d="M222.2 58.3315C224.257 75.8819 225.773 85.2364 229.608 104.838C184.823 114.107 163.179 120.613 122.791 135.912C163.133 104.335 183.551 88 222.2 58.3315Z" stroke="white" stroke-opacity="0.05" stroke-width="2" stroke-miterlimit="10" stroke-linejoin="round"/>
<path d="M229.609 104.838C258.371 61.9975 272.28 41.0093 295.841 3.40137C267.958 23.0316 252.983 34.4944 222.201 58.3317C224.25 75.8916 225.774 85.2366 229.609 104.838Z" stroke="white" stroke-opacity="0.05" stroke-width="2" stroke-miterlimit="10" stroke-linejoin="round"/>
<path d="M229.609 104.838C283.925 77.0877 312.519 64.2763 361.765 48.3119C333.236 27.6371 319.253 18.2636 295.841 3.40088C272.28 41.0088 258.371 61.997 229.609 104.838Z" stroke="white" stroke-opacity="0.05" stroke-width="2" stroke-miterlimit="10" stroke-linejoin="round"/>
<path d="M361.763 48.3116C371.856 30.1439 376.373 21.5587 384.034 5.77475C349.678 0.181049 330.766 -0.350781 295.84 3.41001C319.252 18.2632 333.235 27.6367 361.763 48.3116Z" stroke="white" stroke-opacity="0.05" stroke-width="2" stroke-miterlimit="10" stroke-linejoin="round"/>
<path d="M60.1328 196.037C84.9476 172.713 97.6964 160.471 122.792 135.912C107.929 125.655 92.9541 114.278 84.2928 110.337L60.1328 196.037Z" stroke="white" stroke-opacity="0.05" stroke-width="2" stroke-miterlimit="10" stroke-linejoin="round"/>
<path d="M84.2928 110.337L58.5801 146.91L60.1328 196.038L84.2928 110.337Z" stroke="white" stroke-opacity="0.05" stroke-width="2" stroke-miterlimit="10" stroke-linejoin="round"/>
<path d="M122.792 135.912C113.27 172.124 109.996 191.821 106.704 233.246C85.2469 215.392 75.6876 207.719 60.1328 196.037C84.9382 172.713 97.6964 160.471 122.792 135.912Z" stroke="white" stroke-opacity="0.05" stroke-width="2" stroke-miterlimit="10" stroke-linejoin="round"/>
<path d="M122.791 135.912C163.179 120.613 184.823 114.107 229.608 104.838C181.849 155.533 155.322 183.15 106.703 233.247C109.996 191.821 113.26 172.124 122.791 135.912Z" stroke="white" stroke-opacity="0.05" stroke-width="2" stroke-miterlimit="10" stroke-linejoin="round"/>
<path d="M106.705 233.247C66.4194 236.713 47.4506 239.211 12.9082 245.678C31.1288 226.637 40.7254 216.608 60.1245 196.038C75.6887 207.719 85.2479 215.392 106.705 233.247Z" stroke="white" stroke-opacity="0.05" stroke-width="2" stroke-miterlimit="10" stroke-linejoin="round"/>
<path d="M229.609 104.839C285.16 96.6047 316.55 95.3227 374.691 99.4063C369.341 78.3801 366.722 68.1329 361.765 48.3223C312.519 64.2771 283.916 77.0885 229.609 104.839Z" stroke="white" stroke-opacity="0.05" stroke-width="2" stroke-miterlimit="10" stroke-linejoin="round"/>
<path d="M106.703 233.247C150.197 199.665 173.169 181.412 217.336 147.005C222.172 129.853 224.641 121.411 229.598 104.838C181.84 155.533 155.322 183.15 106.703 233.247Z" stroke="white" stroke-opacity="0.05" stroke-width="2" stroke-miterlimit="10" stroke-linejoin="round"/>
<path d="M217.346 147.004C280.295 122.825 314.622 111.789 374.699 99.4055C316.558 95.3218 285.168 96.6039 229.617 104.838C224.651 121.4 222.181 129.853 217.346 147.004Z" stroke="white" stroke-opacity="0.05" stroke-width="2" stroke-miterlimit="10" stroke-linejoin="round"/>
<path d="M361.764 48.3124C399.262 31.9207 415.92 25.9661 442.952 21.1322C420.27 12.8793 408.419 9.73584 384.034 5.76611C376.374 21.5595 371.856 30.1448 361.764 48.3124Z" stroke="white" stroke-opacity="0.05" stroke-width="2" stroke-miterlimit="10" stroke-linejoin="round"/>
<path d="M446.254 62.0827C445.562 44.8552 444.908 36.6404 442.943 21.1318C465.467 39.347 477.14 49.0624 500.729 68.7305L446.254 62.0827Z" stroke="white" stroke-opacity="0.05" stroke-width="2" stroke-miterlimit="10" stroke-linejoin="round"/>
<path d="M446.254 62.0827C413.797 53.6304 396.746 50.7433 361.764 48.3121C399.262 31.9204 415.92 25.9658 442.952 21.1318C444.916 36.6403 445.561 44.8647 446.254 62.0827Z" stroke="white" stroke-opacity="0.05" stroke-width="2" stroke-miterlimit="10" stroke-linejoin="round"/>
<path d="M446.254 62.0821C421.486 73.0986 406.866 80.9525 374.69 99.3956C369.34 78.3694 366.721 68.1222 361.764 48.3115C396.746 50.7522 413.797 53.6298 446.254 62.0821Z" stroke="white" stroke-opacity="0.05" stroke-width="2" stroke-miterlimit="10" stroke-linejoin="round"/>
<path d="M527.844 169.949C508.96 156.777 499.447 150.129 480.544 137.042C466.869 106.282 459.854 91.1627 446.254 62.083C477.457 104.259 494.63 126.577 527.844 169.949Z" stroke="white" stroke-opacity="0.05" stroke-width="2" stroke-miterlimit="10" stroke-linejoin="round"/>
<path d="M480.545 137.042C438.847 119.91 417.399 111.904 374.691 99.3965C406.867 80.9534 421.496 73.09 446.255 62.083C459.855 91.1627 466.879 106.282 480.545 137.042Z" stroke="white" stroke-opacity="0.05" stroke-width="2" stroke-miterlimit="10" stroke-linejoin="round"/>
<path d="M217.346 147.005C239.111 166.103 251.336 176.977 277.236 200.007C318.812 156.749 340.232 135.362 374.699 99.4062C314.622 111.781 280.295 122.826 217.346 147.005Z" stroke="white" stroke-opacity="0.05" stroke-width="2" stroke-miterlimit="10" stroke-linejoin="round"/>
<path d="M374.691 99.4062C397.187 142.494 409.758 165.562 434.17 211.974C455.58 179.057 465.252 163.71 480.545 137.052C438.847 119.91 417.399 111.904 374.691 99.4062Z" stroke="white" stroke-opacity="0.05" stroke-width="2" stroke-miterlimit="10" stroke-linejoin="round"/>
<path d="M374.692 99.4058C358.183 159.588 346.425 193.672 323.191 263.997C303.998 237.577 294.626 224.604 277.229 200.016C318.805 156.748 340.224 135.361 374.692 99.4058Z" stroke="white" stroke-opacity="0.05" stroke-width="2" stroke-miterlimit="10" stroke-linejoin="round"/>
<path d="M323.191 263.988C369.603 241.376 392.538 230.34 434.17 211.964C409.758 165.552 397.187 142.484 374.692 99.3965C358.183 159.588 346.425 193.673 323.191 263.988Z" stroke="white" stroke-opacity="0.05" stroke-width="2" stroke-miterlimit="10" stroke-linejoin="round"/>
<path d="M434.17 211.963C475.615 191.279 494.855 182.295 527.845 169.949C508.96 156.777 499.448 150.129 480.544 137.042C465.252 163.7 455.58 179.056 434.17 211.963Z" stroke="white" stroke-opacity="0.05" stroke-width="2" stroke-miterlimit="10" stroke-linejoin="round"/>
<path d="M217.346 147.004C173.169 181.412 150.207 199.665 106.713 233.246C170.681 217.719 205.617 210.245 277.236 200.007C251.327 176.967 239.111 166.103 217.346 147.004Z" stroke="white" stroke-opacity="0.05" stroke-width="2" stroke-miterlimit="10" stroke-linejoin="round"/>
<path d="M12.9089 245.678C47.4513 239.211 66.4201 236.713 106.706 233.247C61.4722 270.57 39.1548 288.604 1.00195 318.396L12.9089 245.678Z" stroke="white" stroke-opacity="0.05" stroke-width="2" stroke-miterlimit="10" stroke-linejoin="round"/>
<path d="M106.705 233.246C140.63 255.061 160.553 269.069 202.606 299.364C231.855 259.629 247.475 239.153 277.228 200.007C205.618 210.235 170.673 217.709 106.705 233.246Z" stroke="white" stroke-opacity="0.05" stroke-width="2" stroke-miterlimit="10" stroke-linejoin="round"/>
<path d="M202.605 299.364C249.466 285.128 273.916 277.578 323.19 263.988C303.997 237.567 294.625 224.594 277.227 200.007C247.474 239.153 231.854 259.629 202.605 299.364Z" stroke="white" stroke-opacity="0.05" stroke-width="2" stroke-miterlimit="10" stroke-linejoin="round"/>
<path d="M323.189 263.987C393.649 295.261 430.062 313.552 495.116 343.705C473.023 291.548 459.759 264.244 434.159 211.973C392.536 230.34 369.601 241.385 323.189 263.987Z" stroke="white" stroke-opacity="0.05" stroke-width="2" stroke-miterlimit="10" stroke-linejoin="round"/>
<path d="M495.127 343.705C517.612 320.324 528.453 309.022 548.282 288.661C504.386 259.363 480.769 243.095 434.17 211.973C459.77 264.244 473.034 291.548 495.127 343.705Z" stroke="white" stroke-opacity="0.05" stroke-width="2" stroke-miterlimit="10" stroke-linejoin="round"/>
<path d="M106.705 233.247C116.872 280.304 125.468 308.035 145.69 363.478C167.222 339.138 178.876 325.756 202.606 299.374C160.553 269.069 140.63 255.061 106.705 233.247Z" stroke="white" stroke-opacity="0.05" stroke-width="2" stroke-miterlimit="10" stroke-linejoin="round"/>
<path d="M1.00195 318.387C29.8294 317.086 45.2252 316.497 77.476 315.481C87.3345 282.697 93.433 266.116 106.706 233.237C61.4722 270.56 39.1548 288.595 1.00195 318.387Z" stroke="white" stroke-opacity="0.05" stroke-width="2" stroke-miterlimit="10" stroke-linejoin="round"/>
<path d="M77.4746 315.48C103.112 332.936 117.012 342.993 145.689 363.468C125.467 308.035 116.871 280.304 106.704 233.237C93.441 266.115 87.3332 282.706 77.4746 315.48Z" stroke="white" stroke-opacity="0.05" stroke-width="2" stroke-miterlimit="10" stroke-linejoin="round"/>
<path d="M145.689 363.468C211.519 327.541 249.391 304.055 323.19 263.987C273.916 277.568 249.466 285.118 202.605 299.363C178.885 325.746 167.23 339.127 145.689 363.468Z" stroke="white" stroke-opacity="0.05" stroke-width="2" stroke-miterlimit="10" stroke-linejoin="round"/>
<path d="M323.191 263.988C329.57 295.014 332.928 311.017 339.448 343.021C404.258 343.449 435.873 343.601 495.118 343.705C430.064 313.552 393.651 295.271 323.191 263.988Z" stroke="white" stroke-opacity="0.05" stroke-width="2" stroke-miterlimit="10" stroke-linejoin="round"/>
<path d="M323.19 263.987C249.391 304.055 211.519 327.541 145.689 363.468C218.113 356.924 258.38 352.138 339.447 343.021C332.927 311.016 329.569 295.014 323.19 263.987Z" stroke="white" stroke-opacity="0.05" stroke-width="2" stroke-miterlimit="10" stroke-linejoin="round"/>
<path d="M495.125 343.705C486.651 377.77 481.712 394.827 471.367 428.408C505.404 370.809 522.521 340.115 548.29 288.661C528.451 309.013 517.611 320.323 495.125 343.705Z" stroke="white" stroke-opacity="0.05" stroke-width="2" stroke-miterlimit="10" stroke-linejoin="round"/>
<path d="M471.359 428.408C422.796 398.208 395.185 379.651 339.447 343.021C404.257 343.449 435.872 343.601 495.117 343.705C486.652 377.771 481.714 394.827 471.359 428.408Z" stroke="white" stroke-opacity="0.05" stroke-width="2" stroke-miterlimit="10" stroke-linejoin="round"/>
<path d="M339.456 343.021C337.146 369.214 335.968 382.168 333.667 407.62C255.556 391.076 216.664 380.81 145.699 363.478C218.123 356.925 258.381 352.139 339.456 343.021Z" stroke="white" stroke-opacity="0.05" stroke-width="2" stroke-miterlimit="10" stroke-linejoin="round"/>
<path d="M333.656 407.61C356.161 421.988 367.207 429.054 388.477 442.435C370.079 404.248 359.837 384.02 339.446 343.012C337.145 369.214 335.967 382.168 333.656 407.61Z" stroke="white" stroke-opacity="0.05" stroke-width="2" stroke-miterlimit="10" stroke-linejoin="round"/>
<path d="M471.359 428.408C422.796 398.208 395.185 379.651 339.447 343.021C359.838 384.029 370.08 404.248 388.478 442.445C422.31 437.345 438.968 434.449 471.359 428.408Z" stroke="white" stroke-opacity="0.05" stroke-width="2" stroke-miterlimit="10" stroke-linejoin="round"/>
<path d="M77.4752 315.48C68.0563 348.454 64.371 365.074 59.7598 395.179C91.5709 384.818 109.034 378.179 145.699 363.469C117.012 342.993 103.122 332.936 77.4752 315.48Z" stroke="white" stroke-opacity="0.05" stroke-width="2" stroke-miterlimit="10" stroke-linejoin="round"/>
<path d="M59.7585 395.179C33.2882 362.034 20.8855 345.747 1 318.396C29.8274 317.095 45.2232 316.506 77.474 315.49C68.055 348.454 64.3698 365.073 59.7585 395.179Z" stroke="white" stroke-opacity="0.05" stroke-width="2" stroke-miterlimit="10" stroke-linejoin="round"/>
<path d="M388.486 442.435C415.817 472.294 428.744 486.511 451.183 511.545C459.778 479.084 463.941 462.351 471.358 428.399C438.967 434.448 422.308 437.345 388.486 442.435Z" stroke="white" stroke-opacity="0.05" stroke-width="2" stroke-miterlimit="10" stroke-linejoin="round"/>
<path d="M451.183 511.554C424.563 523.815 411.131 529.788 384.455 540.729C386.541 502.959 387.373 483.168 388.486 442.445C415.817 472.294 428.744 486.511 451.183 511.554Z" stroke="white" stroke-opacity="0.05" stroke-width="2" stroke-miterlimit="10" stroke-linejoin="round"/>
<path d="M384.456 540.729C352.86 527.206 335.341 519.19 300.846 502.162C334.415 479.882 352.879 467.441 388.478 442.445C387.375 483.168 386.552 502.96 384.456 540.729Z" stroke="white" stroke-opacity="0.05" stroke-width="2" stroke-miterlimit="10" stroke-linejoin="round"/>
<path d="M145.689 363.468C159.944 409.633 168.587 432.919 186.153 478.201C239.112 455.57 270.006 439.814 333.657 407.62C255.555 391.066 216.664 380.81 145.689 363.468Z" stroke="white" stroke-opacity="0.05" stroke-width="2" stroke-miterlimit="10" stroke-linejoin="round"/>
<path d="M186.153 478.201C134.045 443.803 107.696 425.959 59.75 395.179C91.5612 384.818 109.024 378.18 145.69 363.469C159.954 409.633 168.596 432.92 186.153 478.201Z" stroke="white" stroke-opacity="0.05" stroke-width="2" stroke-miterlimit="10" stroke-linejoin="round"/>
<path d="M333.656 407.61C319.803 446.69 312.956 465.817 300.844 502.152C334.413 479.872 352.877 467.431 388.476 442.435C367.216 429.063 356.17 421.988 333.656 407.61Z" stroke="white" stroke-opacity="0.05" stroke-width="2" stroke-miterlimit="10" stroke-linejoin="round"/>
<path d="M300.854 502.152C253.947 494.45 230.759 489.34 186.162 478.2C239.121 455.569 270.016 439.814 333.666 407.619C319.805 446.69 312.958 465.816 300.854 502.152Z" stroke="white" stroke-opacity="0.05" stroke-width="2" stroke-miterlimit="10" stroke-linejoin="round"/>
<path d="M59.7598 395.178C76.4183 436.413 86.7445 457.459 108.342 498.742C136.383 493.566 152.191 489.198 186.163 478.2C134.045 443.802 107.696 425.957 59.7598 395.178Z" stroke="white" stroke-opacity="0.05" stroke-width="2" stroke-miterlimit="10" stroke-linejoin="round"/>
<path d="M59.7603 395.179C40.3892 427.098 32.7007 440.897 24.002 461.99C55.9628 477.042 73.0048 484.602 108.342 498.743C86.745 457.46 76.4188 436.414 59.7603 395.179Z" stroke="white" stroke-opacity="0.05" stroke-width="2" stroke-miterlimit="10" stroke-linejoin="round"/>
<path d="M12.9551 383.004C31.054 387.724 40.4449 390.184 59.7599 395.169C40.3888 427.089 32.7003 440.888 24.0015 461.981L12.9551 383.004Z" stroke="white" stroke-opacity="0.05" stroke-width="2" stroke-miterlimit="10" stroke-linejoin="round"/>
<path d="M12.9537 383.003C31.0527 387.723 40.4436 390.183 59.7585 395.169C33.2882 362.024 20.8855 345.737 1 318.386L12.9537 383.003Z" stroke="white" stroke-opacity="0.05" stroke-width="2" stroke-miterlimit="10" stroke-linejoin="round"/>
<path d="M471.359 428.408C500.383 449.671 513.945 459.358 537.685 475.209C503.834 490.128 486.371 497.65 451.184 511.553C459.789 479.083 463.942 462.359 471.359 428.408Z" stroke="white" stroke-opacity="0.05" stroke-width="2" stroke-miterlimit="10" stroke-linejoin="round"/>
<path d="M451.184 511.554C483.5 523.368 498.437 528.069 524.674 533.749C530.735 511.127 533.363 499.37 537.685 475.209C503.844 490.129 486.381 497.641 451.184 511.554Z" stroke="white" stroke-opacity="0.05" stroke-width="2" stroke-miterlimit="10" stroke-linejoin="round"/>
<path d="M451.183 511.554C424.563 523.815 411.131 529.788 384.455 540.729C445.094 543.711 473.753 542.391 524.673 533.749C498.436 528.069 483.499 523.359 451.183 511.554Z" stroke="white" stroke-opacity="0.05" stroke-width="2" stroke-miterlimit="10" stroke-linejoin="round"/>
<path d="M471.359 428.408C495.388 420.811 507.239 416.945 530.352 409.367C540.715 361.36 544.634 335.585 548.282 288.661C522.514 340.106 505.406 370.8 471.359 428.408Z" stroke="white" stroke-opacity="0.05" stroke-width="2" stroke-miterlimit="10" stroke-linejoin="round"/>
<path d="M537.693 475.209C513.954 459.359 500.382 449.672 471.367 428.408C495.396 420.811 507.247 416.945 530.36 409.367L537.693 475.209Z" stroke="white" stroke-opacity="0.05" stroke-width="2" stroke-miterlimit="10" stroke-linejoin="round"/>
<path d="M108.332 498.733C143.09 512.969 161.217 519.855 198.144 531.992C193.046 510.918 190.624 500.129 186.144 478.191C152.181 489.198 136.374 493.567 108.332 498.733Z" stroke="white" stroke-opacity="0.05" stroke-width="2" stroke-miterlimit="10" stroke-linejoin="round"/>
<path d="M108.333 498.734C91.0289 505.344 83.1907 507.813 69.6282 510.643C51.099 490.652 41.8484 480.842 24.002 461.981C55.9628 477.043 73.0048 484.603 108.333 498.734Z" stroke="white" stroke-opacity="0.05" stroke-width="2" stroke-miterlimit="10" stroke-linejoin="round"/>
<path d="M198.153 532.001C161.226 519.855 143.09 512.97 108.341 498.743C91.0375 505.353 83.1993 507.822 69.6367 510.652L198.153 532.001Z" stroke="white" stroke-opacity="0.05" stroke-width="2" stroke-miterlimit="10" stroke-linejoin="round"/>
<path d="M198.153 532.001C235.838 523.539 256.725 517.157 300.854 502.152C253.947 494.45 230.759 489.341 186.162 478.201C190.633 500.139 193.056 510.927 198.153 532.001Z" stroke="white" stroke-opacity="0.05" stroke-width="2" stroke-miterlimit="10" stroke-linejoin="round"/>
<path d="M548.28 288.652C543.491 239.277 539.142 215.221 527.843 169.949C494.853 182.295 475.613 191.279 434.168 211.964C480.767 243.085 504.375 259.363 548.28 288.652Z" stroke="white" stroke-opacity="0.05" stroke-width="2" stroke-miterlimit="10" stroke-linejoin="round"/>
<path d="M527.844 169.949C527.816 151.791 527.405 143.082 525.712 126.586C493.405 100.384 477.223 87.0505 446.254 62.083C477.457 104.259 494.63 126.577 527.844 169.949Z" stroke="white" stroke-opacity="0.05" stroke-width="2" stroke-miterlimit="10" stroke-linejoin="round"/>
<path d="M500.729 68.7309C511.317 90.9822 516.377 102.606 525.712 126.586C493.405 100.384 477.223 87.0505 446.254 62.083L500.729 68.7309Z" stroke="white" stroke-opacity="0.05" stroke-width="2" stroke-miterlimit="10" stroke-linejoin="round"/>
<path d="M534.832 81.3519L525.721 126.586C516.387 102.616 511.326 90.9818 500.738 68.7305L534.832 81.3519Z" stroke="white" stroke-opacity="0.05" stroke-width="2" stroke-miterlimit="10" stroke-linejoin="round"/>
<path d="M525.713 126.586C551.332 152.684 564.427 165.751 589.943 190.757C566.008 181.925 553.53 177.698 527.846 169.949C527.817 151.791 527.406 143.092 525.713 126.586Z" stroke="white" stroke-opacity="0.05" stroke-width="2" stroke-miterlimit="10" stroke-linejoin="round"/>
<path d="M525.711 126.587L534.821 81.3525C557.279 106.026 575.752 122.883 598.472 146.995L525.711 126.587Z" stroke="white" stroke-opacity="0.05" stroke-width="2" stroke-miterlimit="10" stroke-linejoin="round"/>
<path d="M525.713 126.586C551.332 152.684 564.427 165.751 589.943 190.757L598.483 146.995L525.713 126.586Z" stroke="white" stroke-opacity="0.05" stroke-width="2" stroke-miterlimit="10" stroke-linejoin="round"/>
<path d="M527.846 169.949C553.886 197.575 567.037 211.327 592.095 237.406C592.366 217.842 591.954 208.468 589.934 190.757C566.008 181.924 553.53 177.708 527.846 169.949Z" stroke="white" stroke-opacity="0.05" stroke-width="2" stroke-miterlimit="10" stroke-linejoin="round"/>
<path d="M589.941 190.757C611.108 203.265 621.519 209.476 641.685 221.451C624.156 225.554 614.101 228.869 592.093 237.416C592.373 217.852 591.962 208.479 589.941 190.757Z" stroke="white" stroke-opacity="0.05" stroke-width="2" stroke-miterlimit="10" stroke-linejoin="round"/>
<path d="M598.481 147.005C619.994 176.987 628.899 186.018 641.685 221.461C621.509 209.485 611.099 203.274 589.941 190.767L598.481 147.005Z" stroke="white" stroke-opacity="0.05" stroke-width="2" stroke-miterlimit="10" stroke-linejoin="round"/>
<path d="M592.104 237.415C576.858 255.45 567.869 265.896 548.283 288.66C543.494 239.286 539.145 215.23 527.846 169.958C553.886 197.575 567.046 211.327 592.104 237.415Z" stroke="white" stroke-opacity="0.05" stroke-width="2" stroke-miterlimit="10" stroke-linejoin="round"/>
<path d="M592.102 237.416C609.874 265.736 618.339 279.696 632.949 306.449C600.857 299.735 583.778 296.06 548.281 288.662C567.867 265.888 576.856 255.451 592.102 237.416Z" stroke="white" stroke-opacity="0.05" stroke-width="2" stroke-miterlimit="10" stroke-linejoin="round"/>
<path d="M654.661 272.606C630.689 259.408 618.07 252.261 592.217 237.513C609.654 265.705 617.96 279.602 632.295 306.234L654.661 272.606Z" stroke="white" stroke-opacity="0.05" stroke-width="2" stroke-miterlimit="10" stroke-linejoin="round"/>
<path d="M654.659 271.874C650.694 251.088 647.886 240.966 640.874 221.479C623.676 225.517 613.81 228.778 592.215 237.19C618.077 251.761 630.687 258.836 654.659 271.874Z" stroke="white" stroke-opacity="0.05" stroke-width="2" stroke-miterlimit="10" stroke-linejoin="round"/>
<path d="M632.95 306.439C597.958 341.198 575.744 364.038 530.352 409.367C540.715 361.36 544.634 335.586 548.282 288.661C583.779 296.05 600.858 299.725 632.95 306.439Z" stroke="white" stroke-opacity="0.05" stroke-width="2" stroke-miterlimit="10" stroke-linejoin="round"/>
<path d="M654.641 407.373C609.884 410.744 584.555 410.991 530.352 409.367C575.744 364.038 597.958 341.207 632.95 306.439L654.641 407.373Z" stroke="white" stroke-opacity="0.05" stroke-width="2" stroke-miterlimit="10" stroke-linejoin="round"/>
<path d="M530.352 409.368C584.555 410.992 609.875 410.745 654.641 407.374C610.707 432.151 586.585 446.577 537.694 475.21L530.352 409.368Z" stroke="white" stroke-opacity="0.05" stroke-width="2" stroke-miterlimit="10" stroke-linejoin="round"/>
<path d="M654.64 407.373C610.707 432.15 586.584 446.576 537.693 475.209C566.427 494.915 578.736 502.617 596.686 511.269L654.64 407.373Z" stroke="white" stroke-opacity="0.05" stroke-width="2" stroke-miterlimit="10" stroke-linejoin="round"/>
<path d="M524.684 533.748C555.354 526.492 569.88 521.953 596.687 511.269C578.737 502.617 566.428 494.906 537.694 475.209C533.364 499.369 530.735 511.117 524.684 533.748Z" stroke="white" stroke-opacity="0.05" stroke-width="2" stroke-miterlimit="10" stroke-linejoin="round"/>
<path d="M198.154 532.001C268.605 543.208 309.657 545.326 384.457 540.729C352.861 527.206 335.342 519.19 300.846 502.162C256.726 517.158 235.839 523.54 198.154 532.001Z" stroke="white" stroke-opacity="0.05" stroke-width="2" stroke-miterlimit="10" stroke-linejoin="round"/>
<path d="M198.153 532.001C160.505 554.461 144.483 562.932 121.941 570.074C101.12 546.047 90.4852 534.024 69.627 510.652L198.153 532.001Z" stroke="white" stroke-opacity="0.05" stroke-width="2" stroke-miterlimit="10" stroke-linejoin="round"/>
<path d="M121.941 570.065C165.145 587.198 190.269 592.307 244.481 595.194C226.579 570.483 217.15 557.681 198.153 531.992C160.506 554.462 144.474 562.933 121.941 570.065Z" stroke="white" stroke-opacity="0.05" stroke-width="2" stroke-miterlimit="10" stroke-linejoin="round"/>
<path d="M384.457 540.729C324.819 568.65 293.924 581.024 244.482 595.203C226.579 570.492 217.151 557.69 198.154 532.001C268.605 543.198 309.657 545.325 384.457 540.729Z" stroke="white" stroke-opacity="0.05" stroke-width="2" stroke-miterlimit="10" stroke-linejoin="round"/>
<path d="M384.457 540.729C379.752 568.042 377.377 581.328 372.775 606.846C322.116 608.166 294.43 605.517 244.482 595.203C293.934 581.015 324.819 568.65 384.457 540.729Z" stroke="white" stroke-opacity="0.05" stroke-width="2" stroke-miterlimit="10" stroke-linejoin="round"/>
<path d="M372.773 606.847C433.253 583.266 464.699 566.713 524.683 533.749C473.763 542.391 445.104 543.702 384.465 540.729C379.751 568.043 377.375 581.319 372.773 606.847Z" stroke="white" stroke-opacity="0.05" stroke-width="2" stroke-miterlimit="10" stroke-linejoin="round"/>
<path d="M528.041 591.081C528.79 589.828 596.687 511.269 596.687 511.269C569.88 521.953 555.354 526.493 524.684 533.748L528.041 591.081Z" stroke="white" stroke-opacity="0.05" stroke-width="2" stroke-miterlimit="10" stroke-linejoin="round"/>
<path d="M524.683 533.749C483.004 576.979 461.968 599.505 424.592 640.466C467.898 625.565 488.972 615.128 528.051 591.072L524.683 533.749Z" stroke="white" stroke-opacity="0.05" stroke-width="2" stroke-miterlimit="10" stroke-linejoin="round"/>
<path d="M372.773 606.847C395.998 622.726 406.53 629.668 424.582 640.466C461.959 599.496 482.995 576.979 524.674 533.749C464.69 566.713 433.253 583.266 372.773 606.847Z" stroke="white" stroke-opacity="0.05" stroke-width="2" stroke-miterlimit="10" stroke-linejoin="round"/>
<path d="M121.941 570.065C178.193 608.965 207.76 628.149 264.292 655.452C256.575 632.27 252.553 620.162 244.481 595.204C190.259 592.307 165.145 587.198 121.941 570.065Z" stroke="white" stroke-opacity="0.05" stroke-width="2" stroke-miterlimit="10" stroke-linejoin="round"/>
<path d="M69.627 510.643C90.4758 534.015 101.12 546.038 121.941 570.065L77.4839 542.999L69.627 510.643Z" stroke="white" stroke-opacity="0.05" stroke-width="2" stroke-miterlimit="10" stroke-linejoin="round"/>
<path d="M424.583 640.466C406.522 629.668 395.99 622.726 372.775 606.847C325.427 632.346 301.688 643.097 264.293 655.453L424.583 640.466Z" stroke="white" stroke-opacity="0.05" stroke-width="2" stroke-miterlimit="10" stroke-linejoin="round"/>
<path d="M424.582 640.466C426.668 639.744 510.746 619.373 510.746 619.373C517.817 608.318 521.288 602.649 528.031 591.082C488.971 615.128 467.898 625.565 424.582 640.466Z" stroke="white" stroke-opacity="0.05" stroke-width="2" stroke-miterlimit="10" stroke-linejoin="round"/>
<path d="M372.773 606.846C325.425 632.346 301.686 643.096 264.291 655.452C256.575 632.27 252.553 620.161 244.48 595.203C294.428 605.517 322.114 608.166 372.773 606.846Z" stroke="white" stroke-opacity="0.05" stroke-width="2" stroke-miterlimit="10" stroke-linejoin="round"/>
<path d="M654.66 272.446L653.615 407.596L632.891 306.336L654.66 272.446Z" stroke="white" stroke-opacity="0.05" stroke-width="2" stroke-miterlimit="10" stroke-linejoin="round"/>
<path d="M58.5832 146.911L12.9102 245.679L60.1358 196.038L58.5832 146.911Z" stroke="white" stroke-opacity="0.05" stroke-width="2" stroke-miterlimit="10" stroke-linejoin="round"/>
<path d="M534.832 81.3527L442.953 21.1421L500.73 68.7313L534.832 81.3527Z" stroke="white" stroke-opacity="0.05" stroke-width="2" stroke-miterlimit="10" stroke-linejoin="round"/>
<path d="M596.688 511.27L560.687 573.94L528.043 591.082L596.688 511.27Z" stroke="white" stroke-opacity="0.05" stroke-width="2" stroke-miterlimit="10" stroke-linejoin="round"/>
<path d="M560.686 573.94L510.748 619.373L528.043 591.082L560.686 573.94Z" stroke="white" stroke-opacity="0.05" stroke-width="2" stroke-miterlimit="10" stroke-linejoin="round"/>
<path d="M171.583 381.877C181.299 382.41 191.01 382.942 200.71 383.512C201.509 383.56 202.397 383.503 203.288 383.112C204.18 382.721 204.829 382.104 205.342 381.469C211.667 373.659 218.027 365.868 224.387 358.07C223.645 365.943 222.9 373.842 222.147 381.842L221.903 384.438L224.507 384.573C233.153 385.023 241.724 385.47 250.276 385.916C241.258 390.089 232.244 394.261 223.215 398.396L223.213 398.397C222.442 398.751 221.62 399.242 221.001 400.048C220.431 400.792 220.196 401.59 220.099 402.316L220.065 402.621C219.446 409.651 218.77 416.683 218.099 423.73C215.469 421.409 212.902 419.144 210.336 416.883C208.251 415.044 206.227 413.328 204.275 411.536L203.443 410.763C202.829 410.185 201.955 409.553 200.731 409.426C199.596 409.309 198.571 409.675 197.737 410.068L197.738 410.068C189.257 414.063 180.757 418.009 172.25 421.96C177.468 415.571 182.685 409.19 187.95 402.83L187.949 402.829C188.472 402.198 189.32 401.128 189.418 399.765C189.522 398.311 188.781 397.252 188.058 396.542L187.751 396.258L185.186 394.011C180.622 389.996 176.111 385.941 171.583 381.877Z" fill="#A50000" stroke="#A50000" stroke-width="5"/>
<path d="M491.15 185.718C464.69 208.874 438.27 232.047 411.596 254.942C388.834 274.48 367.965 295.817 347.541 317.539C328.192 338.118 308.761 358.616 289.333 379.126C303.15 358.333 318.707 334.922 324.285 326.527C324.584 326.373 324.831 326.246 325.02 326.149C325.17 326.072 325.284 326.013 325.361 325.974C325.399 325.954 325.429 325.939 325.448 325.93L325.476 325.915L325.477 325.915L325.477 325.914C325.475 325.911 325.453 325.868 325.135 325.248C325.474 324.739 325.75 324.324 325.958 324.011C326.108 323.785 326.222 323.612 326.299 323.496C326.338 323.439 326.367 323.395 326.387 323.366C326.396 323.351 326.404 323.339 326.409 323.332C326.411 323.329 326.413 323.326 326.414 323.324C326.415 323.323 326.416 323.322 326.416 323.321L326.416 323.321L329.97 317.973L323.436 321.34C322.252 320.554 322.251 320.555 322.251 320.555L322.25 320.557C322.248 320.559 322.246 320.562 322.244 320.566C322.239 320.573 322.232 320.584 322.223 320.598C322.203 320.628 322.174 320.672 322.135 320.73C322.058 320.846 321.943 321.019 321.793 321.245C321.559 321.597 321.238 322.078 320.839 322.679C313.955 326.229 293.216 336.956 276.429 345.963C278.98 343.153 281.846 340.001 284.792 336.761C293.857 326.793 303.695 315.98 307.446 311.797C308.773 311.455 310.1 311.112 311.427 310.77L310.802 308.35L310.74 308.109L313.439 305.087L305.465 307.145C305.27 307.195 305.076 307.244 304.881 307.294C304.937 307.175 304.987 307.093 305.002 307.068C305.065 306.963 305.12 306.889 305.127 306.88C305.156 306.842 305.172 306.823 305.156 306.842C305.133 306.871 305.082 306.931 304.996 307.031C304.923 307.115 304.831 307.215 304.724 307.335C278.664 314.063 252.604 320.791 226.545 327.519C254.605 315.263 282.671 303.012 310.716 290.717C327.629 283.302 344.667 275.978 361.455 268.143C376.636 261.057 390.774 252.143 404.59 243.003C433.448 223.913 462.3 204.816 491.15 185.718Z" fill="#4A5AC5" stroke="#4A5AC5" stroke-width="5"/>
</svg>
